<svg width="24" height="24" viewBox="0 0 24 24" fill="none" xmlns="http://www.w3.org/2000/svg">
<path fill-rule="evenodd" clip-rule="evenodd" d="M18.5687 3.20166C19.3154 3.20166 20.0314 3.49826 20.5594 4.02621C21.0873 4.55416 21.3839 5.27022 21.3839 6.01685V15.4008C21.3839 16.1475 21.0873 16.8635 20.5594 17.3915C20.0314 17.9194 19.3154 18.216 18.5687 18.216H7.62044L4.49276 20.562C3.71952 21.1419 2.61597 20.5902 2.61597 19.6236V6.01685C2.61597 5.27022 2.91257 4.55416 3.44052 4.02621C3.96847 3.49826 4.68452 3.20166 5.43116 3.20166H18.5687ZM11.0615 11.6472H8.24635C7.99747 11.6472 7.75879 11.7461 7.5828 11.9221C7.40682 12.0981 7.30795 12.3368 7.30795 12.5856C7.30795 12.8345 7.40682 13.0732 7.5828 13.2492C7.75879 13.4252 7.99747 13.524 8.24635 13.524H11.0615C11.3104 13.524 11.5491 13.4252 11.7251 13.2492C11.9011 13.0732 11.9999 12.8345 11.9999 12.5856C11.9999 12.3368 11.9011 12.0981 11.7251 11.9221C11.5491 11.7461 11.3104 11.6472 11.0615 11.6472ZM15.7535 7.89365H8.24635C8.00717 7.89391 7.77712 7.9855 7.6032 8.14969C7.42928 8.31388 7.32462 8.53828 7.31061 8.77705C7.29659 9.01582 7.37427 9.25092 7.52779 9.43434C7.6813 9.61775 7.89905 9.73562 8.13656 9.76387L8.24635 9.77044H15.7535C15.9927 9.77018 16.2228 9.67859 16.3967 9.5144C16.5706 9.35021 16.6753 9.12581 16.6893 8.88704C16.7033 8.64827 16.6256 8.41316 16.4721 8.22975C16.3186 8.04634 16.1008 7.92846 15.8633 7.90022L15.7535 7.89365Z" fill="#457EFF"/>
</svg>
