<svg width="25" height="24" viewBox="0 0 25 24" fill="none" xmlns="http://www.w3.org/2000/svg">
<path fill-rule="evenodd" clip-rule="evenodd" d="M19.0687 3.20166C19.8154 3.20166 20.5314 3.49826 21.0594 4.02621C21.5873 4.55416 21.8839 5.27022 21.8839 6.01685V15.4008C21.8839 16.1475 21.5873 16.8635 21.0594 17.3915C20.5314 17.9194 19.8154 18.216 19.0687 18.216H8.12044L4.99276 20.562C4.21952 21.1419 3.11597 20.5902 3.11597 19.6236V6.01685C3.11597 5.27022 3.41257 4.55416 3.94052 4.02621C4.46847 3.49826 5.18452 3.20166 5.93116 3.20166H19.0687ZM11.5615 11.6472H8.74635C8.49747 11.6472 8.25879 11.7461 8.0828 11.9221C7.90682 12.0981 7.80795 12.3368 7.80795 12.5856C7.80795 12.8345 7.90682 13.0732 8.0828 13.2492C8.25879 13.4252 8.49747 13.524 8.74635 13.524H11.5615C11.8104 13.524 12.0491 13.4252 12.2251 13.2492C12.4011 13.0732 12.4999 12.8345 12.4999 12.5856C12.4999 12.3368 12.4011 12.0981 12.2251 11.9221C12.0491 11.7461 11.8104 11.6472 11.5615 11.6472ZM16.2535 7.89365H8.74635C8.50717 7.89391 8.27712 7.9855 8.1032 8.14969C7.92928 8.31388 7.82462 8.53828 7.81061 8.77705C7.79659 9.01582 7.87427 9.25093 8.02779 9.43434C8.1813 9.61775 8.39905 9.73562 8.63656 9.76387L8.74635 9.77044H16.2535C16.4927 9.77018 16.7228 9.67859 16.8967 9.5144C17.0706 9.35021 17.1753 9.12581 17.1893 8.88704C17.2033 8.64827 17.1256 8.41316 16.9721 8.22975C16.8186 8.04634 16.6008 7.92846 16.3633 7.90022L16.2535 7.89365Z" fill="#457EFF"/>
</svg>
