<svg width="72" height="73" viewBox="0 0 72 73" fill="none" xmlns="http://www.w3.org/2000/svg">
<path fill-rule="evenodd" clip-rule="evenodd" d="M60 40.5C64.412 40.5 68 44.088 68 48.5V52.5H72V66.5C72 69.808 69.308 72.5 66 72.5H54C50.692 72.5 48 69.808 48 66.5V52.5H52V48.5C52 44.088 55.588 40.5 60 40.5ZM30 0.5C33.4 0.5 36.72 1.46 39.56 3.26C40.68 3.93999 41.76 4.77999 42.72 5.73999C44.56 7.58 45.9 9.74799 46.772 12.108C47.196 13.248 47.552 14.412 47.74 15.636L47.824 16.184L47.96 16.94L47.94 16.952V16.96L45.964 18.176C44.288 19.26 42.384 20.484 38.724 20.496C38.708 20.496 38.696 20.5 38.68 20.5C37.76 20.5 36.952 20.42 36.232 20.288C36.208 20.284 36.192 20.276 36.168 20.272C34.056 19.868 32.68 18.988 31.432 18.184C31.072 17.948 30.728 17.728 30.376 17.524C29.328 16.924 28.204 16.5 26.32 16.5H26.308C24.14 16.504 22.98 17.096 21.756 17.86C21.588 17.968 21.424 18.064 21.252 18.176C21.136 18.252 21 18.332 20.88 18.408C20.644 18.56 20.404 18.712 20.144 18.864C19.976 18.964 19.788 19.052 19.608 19.148C19.348 19.284 19.084 19.416 18.792 19.54C18.544 19.652 18.276 19.748 18 19.844C17.74 19.932 17.456 20.004 17.168 20.08C16.832 20.168 16.5 20.252 16.124 20.312C16.08 20.32 16.044 20.332 16 20.34V22.5C16 23.14 16.04 23.78 16.16 24.38C17.04 31.22 22.92 36.5 30 36.5C37.32 36.5 43.36 30.82 43.92 23.66C45.72 23.1 47 22.26 48 21.62V22.5C48 28.708 44.836 34.192 40.036 37.428H40.22C43.9783 38.0565 47.6702 39.0327 51.248 40.344C49.248 42.488 48 45.34 48 48.5H44V66.5C44 66.552 44.016 66.6 44.016 66.656C38.656 68.064 33.8 68.5 30 68.5C17.044 68.5 7.04801 63.988 0.943988 60.2L0 59.612V52.248C0 46.996 3.22001 42.384 8.20001 40.5C11.964 39.072 15.872 38.064 19.832 37.412H20.012C15.732 34.528 12.72 29.892 12.12 24.5C12.04 23.86 12 23.18 12 22.5V18.5C12 16.38 12.36 14.38 13.04 12.5C15.52 5.49999 22.2 0.5 30 0.5ZM60 44.5C57.796 44.5 56 46.296 56 48.5V52.5H64V48.5C64 46.296 62.204 44.5 60 44.5Z" fill="#457EFF"/>
</svg>
