<svg width="72" height="73" viewBox="0 0 72 73" fill="none" xmlns="http://www.w3.org/2000/svg">
<path fill-rule="evenodd" clip-rule="evenodd" d="M46.584 0.5V21.6765H38.1176V32.9678H63.5294V51.3235H72V72.5H50.8193V51.3235H59.2941V37.2073H38.1177V51.3235H46.584V72.5H25.4118V51.3235H33.8824V37.2073H12.7017V51.3235H21.1765V72.5H0V51.3235H8.46638V32.9678H33.8824V21.6765H25.4117V0.5H46.584ZM67.7647 55.5631H55.0546V68.269H67.7647V55.5631ZM42.353 55.5631H29.6471V68.269H42.353V55.5631ZM16.9412 55.5631H4.23525V68.269H16.9412V55.5631H16.9412ZM42.353 4.73529H29.6471V17.4454H42.353V4.73529Z" fill="#457EFF"/>
</svg>
