<svg width="84" height="85" viewBox="0 0 84 85" fill="none" xmlns="http://www.w3.org/2000/svg">
<rect width="84" height="84" transform="translate(0 0.5)" fill="white"/>
<path fill-rule="evenodd" clip-rule="evenodd" d="M8.75 25C8.75 19.201 13.451 14.5 19.25 14.5H50.75C53.3409 14.5 55.6031 15.9076 56.8134 17.9998C59.1293 18.0011 60.7848 18.0381 62.2765 18.6449C63.0071 18.9422 63.6942 19.3368 64.3191 19.8182C65.6796 20.8662 66.5743 22.4016 67.866 24.6184L71.1511 30.25H64.75C62.817 30.25 61.25 31.817 61.25 33.75V44.25C61.25 47.1495 63.6005 49.5 66.5 49.5H77V54.75C77 60.549 72.299 65.25 66.5 65.25H64.7334C64.7444 65.1056 64.75 64.9597 64.75 64.8125C64.75 61.6714 62.2036 59.125 59.0625 59.125C55.9214 59.125 53.375 61.6714 53.375 64.8125C53.375 64.9597 53.3806 65.1056 53.3916 65.25L34.125 65.25C34.125 61.8673 31.3827 59.125 28 59.125C24.6173 59.125 21.875 61.8673 21.875 65.25H21C14.2345 65.25 8.75 59.7655 8.75 53V25ZM12.25 44.25H50.75C52.683 44.25 54.25 42.683 54.25 40.75V21.5C54.25 19.567 52.683 18 50.75 18H19.25C15.384 18 12.25 21.134 12.25 25V44.25Z" fill="#457EFF"/>
<path d="M32.375 65.25C32.375 62.8338 30.4162 60.875 28 60.875C25.5838 60.875 23.625 62.8338 23.625 65.25H32.375Z" fill="#457EFF"/>
<path d="M63 64.8125C63 64.9604 62.9918 65.1064 62.976 65.25H55.149C55.1332 65.1064 55.125 64.9604 55.125 64.8125C55.125 62.6379 56.8879 60.875 59.0625 60.875C61.2371 60.875 63 62.6379 63 64.8125Z" fill="#457EFF"/>
<path d="M77 46V42.9327C77 42.6435 77 42.443 76.9909 42.2426C76.9324 40.9653 76.5948 39.7163 76.0016 38.5836C75.9086 38.4058 75.8077 38.2328 75.6618 37.9829L73.1927 33.75H64.75V44.25C64.75 45.2165 65.5335 46 66.5 46H77Z" fill="#457EFF"/>
<path d="M55.125 64.8125C55.125 62.6379 56.8879 60.875 59.0625 60.875C61.2371 60.875 63 62.6379 63 64.8125C63 66.9871 61.2371 68.75 59.0625 68.75C56.8879 68.75 55.125 66.9871 55.125 64.8125Z" fill="#457EFF"/>
<path d="M23.625 65.25C23.625 62.8338 25.5838 60.875 28 60.875C30.4162 60.875 32.375 62.8338 32.375 65.25C32.375 67.6662 30.4162 69.625 28 69.625C25.5838 69.625 23.625 67.6662 23.625 65.25Z" fill="#457EFF"/>
<path d="M32.5082 24.3303C32.375 24.6519 32.375 25.0596 32.375 25.875V27.541C32.375 27.5806 32.375 27.6004 32.3627 27.6127C32.3504 27.625 32.3306 27.625 32.291 27.625H30.625C29.8096 27.625 29.4019 27.625 29.0803 27.7582C28.6515 27.9358 28.3108 28.2765 28.1332 28.7053C28 29.0269 28 29.4346 28 30.25C28 31.0654 28 31.4731 28.1332 31.7947C28.3108 32.2235 28.6515 32.5642 29.0803 32.7418C29.4019 32.875 29.8096 32.875 30.625 32.875H32.291C32.3306 32.875 32.3504 32.875 32.3627 32.8873C32.375 32.8996 32.375 32.9194 32.375 32.959V34.625C32.375 35.4404 32.375 35.8481 32.5082 36.1697C32.6858 36.5985 33.0265 36.9392 33.4553 37.1168C33.7769 37.25 34.1846 37.25 35 37.25C35.8154 37.25 36.2231 37.25 36.5447 37.1168C36.9735 36.9392 37.3142 36.5985 37.4918 36.1697C37.625 35.8481 37.625 35.4404 37.625 34.625V32.959C37.625 32.9194 37.625 32.8996 37.6373 32.8873C37.6496 32.875 37.6694 32.875 37.709 32.875H39.375C40.1904 32.875 40.5981 32.875 40.9197 32.7418C41.3485 32.5642 41.6892 32.2235 41.8668 31.7947C42 31.4731 42 31.0654 42 30.25C42 29.4346 42 29.0269 41.8668 28.7053C41.6892 28.2765 41.3485 27.9358 40.9197 27.7582C40.5981 27.625 40.1904 27.625 39.375 27.625H37.709C37.6694 27.625 37.6496 27.625 37.6373 27.6127C37.625 27.6004 37.625 27.5806 37.625 27.541V25.875C37.625 25.0596 37.625 24.6519 37.4918 24.3303C37.3142 23.9015 36.9735 23.5608 36.5447 23.3832C36.2231 23.25 35.8154 23.25 35 23.25C34.1846 23.25 33.7769 23.25 33.4553 23.3832C33.0265 23.5608 32.6858 23.9015 32.5082 24.3303Z" fill="#457EFF"/>
</svg>
