<svg width="84" height="85" viewBox="0 0 84 85" fill="none" xmlns="http://www.w3.org/2000/svg">
<circle cx="42" cy="42.5" r="42" fill="#457EFF"/>
<path d="M27.9276 40.5256C30.1452 40.5256 31.9482 38.7548 31.9482 36.5768C31.9482 34.3988 30.1452 32.628 27.9276 32.628C25.71 32.628 23.907 34.3988 23.907 36.5768C23.907 38.7548 25.71 40.5256 27.9276 40.5256ZM56.0718 40.5256C58.2895 40.5256 60.0924 38.7548 60.0924 36.5768C60.0924 34.3988 58.2895 32.628 56.0718 32.628C53.8542 32.628 52.0512 34.3988 52.0512 36.5768C52.0512 38.7548 53.8542 40.5256 56.0718 40.5256ZM58.0821 42.5H54.0615C52.9559 42.5 51.957 42.9381 51.2283 43.6476C53.76 45.0112 55.5567 47.473 55.9462 50.3976H60.0924C61.2044 50.3976 62.1028 49.5153 62.1028 48.4232V46.4488C62.1028 44.2708 60.2998 42.5 58.0821 42.5ZM41.9997 42.5C45.8884 42.5 49.0358 39.4088 49.0358 35.5896C49.0358 31.7704 45.8884 28.6792 41.9997 28.6792C38.1111 28.6792 34.9637 31.7704 34.9637 35.5896C34.9637 39.4088 38.1111 42.5 41.9997 42.5ZM46.8245 44.4744H46.303C44.9963 45.0914 43.5452 45.4616 41.9997 45.4616C40.4543 45.4616 39.0094 45.0914 37.6964 44.4744H37.175C33.1795 44.4744 29.9379 47.6581 29.9379 51.5823V53.3592C29.9379 54.9943 31.2886 56.3208 32.9534 56.3208H51.0461C52.7109 56.3208 54.0615 54.9943 54.0615 53.3592V51.5823C54.0615 47.6581 50.8199 44.4744 46.8245 44.4744ZM32.7712 43.6476C32.0425 42.9381 31.0436 42.5 29.9379 42.5H25.9173C23.6997 42.5 21.8967 44.2708 21.8967 46.4488V48.4232C21.8967 49.5153 22.7951 50.3976 23.907 50.3976H28.047C28.4428 47.473 30.2395 45.0112 32.7712 43.6476Z" fill="white"/>
</svg>
