<svg width="72" height="73" viewBox="0 0 72 73" fill="none" xmlns="http://www.w3.org/2000/svg">
<path fill-rule="evenodd" clip-rule="evenodd" d="M72 32.8993V64.0293C72 68.6882 68.1882 72.5 63.5294 72.5C58.8706 72.5 55.0588 68.6882 55.0588 64.0293V42.7254C62.0894 42.1324 68.1882 38.3629 72 32.8993ZM19.0588 0.5C26.479 0.5 32.8532 4.80736 36 11.0079C39.1468 4.80736 45.521 0.5 52.9412 0.5H72V19.5591C72 30.0671 63.449 38.6183 52.9412 38.6183H19.0588C8.55105 38.6183 0 30.0671 0 19.5591V0.5H19.0588ZM63.5294 13.2061H52.9412C47.1007 13.2061 42.353 17.9582 42.353 23.7945V25.9122H52.9412C58.7817 25.9122 63.5294 21.1601 63.5294 15.3238V13.2061ZM19.0588 13.2061H8.47058V15.3238C8.47058 21.1601 13.2183 25.9122 19.0588 25.9122H29.6471V23.7945C29.6471 17.9582 24.8993 13.2061 19.0588 13.2061Z" fill="#457EFF"/>
</svg>
