<svg width="80" height="81" viewBox="0 0 80 81" fill="none" xmlns="http://www.w3.org/2000/svg">
<circle opacity="0.1" cx="40" cy="40.5" r="40" fill="#2F80ED"/>
<g clip-path="url(#clip0_1_1853)">
<path d="M49.2906 20.5H30.7552C29.9968 20.5 29.3822 21.1146 29.3822 21.873V28.6006C29.3822 29.359 29.9968 29.9736 30.7552 29.9736H49.2906C50.049 29.9736 50.6636 29.359 50.6636 28.6006V21.873C50.6636 21.1146 50.049 20.5 49.2906 20.5ZM47.9177 27.2277H32.1281V23.246H47.9176V27.2277H47.9177Z" fill="#10217D"/>
<path d="M47.3227 28.6467H44.5767V34.9625H47.3227V28.6467Z" fill="#10217D"/>
<path d="M35.4234 28.6467H32.6774V34.9625H35.4234V28.6467Z" fill="#10217D"/>
<path d="M49.9771 33.5892H30.0229C28.7611 33.5892 27.7345 34.6158 27.7345 35.8776V58.2117C27.7345 59.4735 28.7611 60.5 30.0229 60.5H49.9771C51.2389 60.5 52.2654 59.4735 52.2654 58.2117V35.8776C52.2654 34.6158 51.2389 33.5892 49.9771 33.5892ZM49.5194 57.754H30.4805V36.3352H49.5194V57.754Z" fill="#10217D"/>
<path d="M39.9999 40.7745C39.2416 40.7745 38.627 41.3891 38.627 42.1475V51.9416C38.627 52.6999 39.2416 53.3145 39.9999 53.3145C40.7583 53.3145 41.3729 52.6999 41.3729 51.9416V42.1475C41.3729 41.3891 40.7583 40.7745 39.9999 40.7745Z" fill="#10217D"/>
<path d="M44.897 45.6716H35.1029C34.3446 45.6716 33.73 46.2862 33.73 47.0446C33.73 47.803 34.3446 48.4176 35.1029 48.4176H44.897C45.6558 48.4176 46.27 47.803 46.27 47.0446C46.27 46.2862 45.6554 45.6716 44.897 45.6716Z" fill="#10217D"/>
</g>
<defs>
<clipPath id="clip0_1_1853">
<rect width="40" height="40" fill="white" transform="translate(20 20.5)"/>
</clipPath>
</defs>
</svg>
