<svg width="80" height="81" viewBox="0 0 80 81" fill="none" xmlns="http://www.w3.org/2000/svg">
<circle opacity="0.1" cx="40" cy="40.5" r="40" fill="#2F80ED"/>
<path d="M40.0224 41.0333C44.9756 41.0333 48.9909 36.4368 48.9909 30.7667C48.9909 25.0966 44.9756 20.5 40.0224 20.5C35.0692 20.5 31.0538 25.0966 31.0538 30.7667C31.0538 36.4368 35.0692 41.0333 40.0224 41.0333Z" stroke="#10217D" stroke-width="2" stroke-miterlimit="10" stroke-linecap="round" stroke-linejoin="round"/>
<path d="M29.7086 32.4556C30.4516 32.4556 31.0538 31.7691 31.0538 30.9223C31.0538 30.0754 30.4516 29.3889 29.7086 29.3889C28.9656 29.3889 28.3633 30.0754 28.3633 30.9223C28.3633 31.7691 28.9656 32.4556 29.7086 32.4556Z" stroke="#10217D" stroke-width="2" stroke-miterlimit="10" stroke-linecap="round" stroke-linejoin="round"/>
<path d="M50.3587 32.4556C51.1017 32.4556 51.704 31.7691 51.704 30.9223C51.704 30.0754 51.1017 29.3889 50.3587 29.3889C49.6157 29.3889 49.0134 30.0754 49.0134 30.9223C49.0134 31.7691 49.6157 32.4556 50.3587 32.4556Z" stroke="#10217D" stroke-width="2" stroke-miterlimit="10" stroke-linecap="round" stroke-linejoin="round"/>
<path d="M31.547 27.3888C31.547 27.3888 35.3586 27.0555 37.8922 23.7888C37.8922 23.7888 43.7218 30.2555 48.946 29.5221" stroke="#10217D" stroke-width="2" stroke-miterlimit="10" stroke-linecap="round" stroke-linejoin="round"/>
<path d="M34.1702 31.5C34.1702 31.5 35.9191 30.0111 37.4213 31.5" stroke="#10217D" stroke-width="2" stroke-miterlimit="10" stroke-linecap="round" stroke-linejoin="round"/>
<path d="M38.408 36.4778C38.408 36.4778 40.1569 37.9667 41.6591 36.4778" stroke="#10217D" stroke-width="2" stroke-miterlimit="10" stroke-linecap="round" stroke-linejoin="round"/>
<path d="M45.4484 31.5C45.4484 31.5 43.6995 30.0111 42.1973 31.5" stroke="#10217D" stroke-width="2" stroke-miterlimit="10" stroke-linecap="round" stroke-linejoin="round"/>
<path d="M45.6504 38.7666L55.314 41.3222C56.592 41.6555 57.7355 42.4555 58.3633 43.6111C58.6772 44.1888 58.9238 44.8777 58.9238 45.7222C58.9238 48.4777 60 60.4999 60 60.4999H40.045" stroke="#10217D" stroke-width="2" stroke-miterlimit="10" stroke-linecap="round" stroke-linejoin="round"/>
<path d="M34.3497 38.7667L24.6861 41.3222C23.408 41.6556 22.2645 42.4556 21.6368 43.6111C21.3229 44.1889 21.0762 44.8778 21.0762 45.7222C21.0762 48.4778 20 60.5 20 60.5H39.955" stroke="#10217D" stroke-width="2" stroke-miterlimit="10" stroke-linecap="round" stroke-linejoin="round"/>
<path d="M48.5875 39.5445L39.9777 48.0778V53.789" stroke="#10217D" stroke-width="2" stroke-miterlimit="10" stroke-linecap="round" stroke-linejoin="round"/>
<path d="M31.3451 39.5445L39.9549 48.0778" stroke="#10217D" stroke-width="2" stroke-miterlimit="10" stroke-linecap="round" stroke-linejoin="round"/>
<path d="M39.955 56.9222C40.8218 56.9222 41.5245 56.2258 41.5245 55.3667C41.5245 54.5076 40.8218 53.8111 39.955 53.8111C39.0882 53.8111 38.3855 54.5076 38.3855 55.3667C38.3855 56.2258 39.0882 56.9222 39.955 56.9222Z" stroke="#10217D" stroke-width="2" stroke-miterlimit="10" stroke-linecap="round" stroke-linejoin="round"/>
<path d="M55.2241 51.6778C54.6187 49.6111 52.556 48.1 50.0896 48.1C47.6233 48.1 45.5605 49.6111 44.9551 51.6778C44.8879 51.6778 44.843 51.6778 44.7758 51.6778C43.9013 51.6778 43.5201 52.2333 43.5201 52.9222C43.5201 53.6111 43.9013 54.1667 44.7758 54.1667C44.843 54.1667 44.8879 54.1667 44.9551 54.1667C45.5605 56.2333 47.6233 57.7444 50.0896 57.7444C52.556 57.7444 54.6187 56.2333 55.2241 54.1667C55.2914 54.1667 55.3362 54.1667 55.4035 54.1667C56.2779 54.1667 56.7039 53.6111 56.7039 52.9222C56.7039 52.2333 56.2779 51.6778 55.4035 51.6778C55.3362 51.6555 55.2689 51.6555 55.2241 51.6778Z" stroke="#10217D" stroke-width="2" stroke-miterlimit="10" stroke-linecap="round" stroke-linejoin="round"/>
<path d="M49.1477 48.1667C49.1477 48.1667 48.8114 49.8334 51.1432 50.8112" stroke="#10217D" stroke-width="2" stroke-miterlimit="10" stroke-linecap="round" stroke-linejoin="round"/>
<path d="M48.2284 53.3666C48.5751 53.3666 48.8562 53.1377 48.8562 52.8555C48.8562 52.5732 48.5751 52.3444 48.2284 52.3444C47.8817 52.3444 47.6006 52.5732 47.6006 52.8555C47.6006 53.1377 47.8817 53.3666 48.2284 53.3666Z" fill="#0079AB"/>
<path d="M52.3318 53.3666C52.6785 53.3666 52.9596 53.1377 52.9596 52.8555C52.9596 52.5732 52.6785 52.3444 52.3318 52.3444C51.9851 52.3444 51.704 52.5732 51.704 52.8555C51.704 53.1377 51.9851 53.3666 52.3318 53.3666Z" fill="#0079AB"/>
<path d="M50.2912 55.2555C50.638 55.2555 50.919 55.1162 50.919 54.9444C50.919 54.7726 50.638 54.6333 50.2912 54.6333C49.9445 54.6333 49.6635 54.7726 49.6635 54.9444C49.6635 55.1162 49.9445 55.2555 50.2912 55.2555Z" fill="#0079AB"/>
</svg>
