<svg width="80" height="81" viewBox="0 0 80 81" fill="none" xmlns="http://www.w3.org/2000/svg">
<circle opacity="0.1" cx="40" cy="40.5" r="40" fill="#2F80ED"/>
<path d="M38.6725 33.3419C39.0948 34.1791 39.3393 35.1296 39.3393 36.1253C39.3393 39.5196 36.6274 42.2577 33.3153 42.2577C30.0032 42.2577 27.2913 39.497 27.2913 36.1253C27.2913 35.1296 27.5358 34.1791 27.9581 33.3419" stroke="#10217D" stroke-width="2" stroke-miterlimit="10" stroke-linecap="round" stroke-linejoin="round"/>
<path d="M38.6724 33.3417H27.9136L28.2915 26.8472L29.1362 26.5983C31.8036 25.8289 34.6267 25.8289 37.2942 26.553L38.2945 26.8246L38.6724 33.3417Z" stroke="#10217D" stroke-width="2" stroke-miterlimit="10" stroke-linecap="round" stroke-linejoin="round"/>
<path d="M30.8254 29.8116H35.6047" stroke="#10217D" stroke-width="2" stroke-miterlimit="10" stroke-linecap="round" stroke-linejoin="round"/>
<path d="M33.2261 32.2556V27.3904" stroke="#10217D" stroke-width="2" stroke-miterlimit="10" stroke-linecap="round" stroke-linejoin="round"/>
<path d="M20 49.5215C20 46.444 25.9796 43.9548 33.3151 43.9548C40.6507 43.9548 46.608 46.444 46.608 49.5215V54.4999H39.2725H27.3578H20V49.5215Z" stroke="#10217D" stroke-width="2" stroke-miterlimit="10" stroke-linecap="round" stroke-linejoin="round"/>
<path d="M33.2929 54.5L28.6471 44.2943" stroke="#10217D" stroke-width="2" stroke-miterlimit="10" stroke-linecap="round" stroke-linejoin="round"/>
<path d="M33.2928 54.5L37.9387 44.2943" stroke="#10217D" stroke-width="2" stroke-miterlimit="10" stroke-linecap="round" stroke-linejoin="round"/>
<path d="M43.3181 28.5897C43.4515 27.6846 43.8294 26.8246 44.5629 26.0552C45.5855 25.0143 47.0526 24.1997 48.7864 24.607C50.1869 24.9238 51.0982 25.9421 51.4761 26.4626C51.5651 26.5757 51.7207 26.5757 51.8096 26.4626C52.1875 25.9421 53.0989 24.9464 54.4993 24.607C56.2331 24.1997 57.7002 25.0143 58.7228 26.0552C61.4569 28.8839 59.3896 33.3871 56.3887 35.469C55.1661 36.3289 53.2767 37.664 52.4097 38.5465C52.1652 38.7954 51.9429 39.0217 51.8096 39.2027C51.7207 39.2933 51.5873 39.2933 51.4984 39.2027C51.3428 39.0217 51.1427 38.7954 50.8982 38.5465C50.0313 37.6866 48.1418 36.3289 46.9192 35.469C46.319 35.0616 45.7633 34.5638 45.2743 33.9981" stroke="#10217D" stroke-width="2" stroke-miterlimit="10" stroke-linecap="round" stroke-linejoin="round"/>
<path d="M43.7183 31.4634H46.1857L46.9192 30.2641L47.9195 33.0022L49.0754 26.9376L50.4314 34.7673L52.0986 29.9699L53.1211 33.0249L54.0103 31.4634H56.2998" stroke="#10217D" stroke-width="2" stroke-miterlimit="10" stroke-linecap="round" stroke-linejoin="round"/>
<path d="M56.2997 32.0971C56.6434 32.0971 56.9219 31.8134 56.9219 31.4635C56.9219 31.1136 56.6434 30.8299 56.2997 30.8299C55.9561 30.8299 55.6775 31.1136 55.6775 31.4635C55.6775 31.8134 55.9561 32.0971 56.2997 32.0971Z" fill="#0079AB"/>
</svg>
