<svg width="25" height="24" viewBox="0 0 25 24" fill="none" xmlns="http://www.w3.org/2000/svg">
<path d="M21.7644 12.3078L13.2056 2.79805C12.8452 2.39674 12.1529 2.39674 11.7924 2.79805L3.23364 12.3078C3.11045 12.4444 3.02959 12.6138 3.00089 12.7954C2.97219 12.9771 2.99688 13.1632 3.07198 13.3311C3.22413 13.6744 3.56458 13.895 3.94022 13.895H5.84217V20.5518C5.84217 20.8041 5.94236 21.0459 6.12071 21.2243C6.29905 21.4026 6.54093 21.5028 6.79315 21.5028H9.64608C9.89829 21.5028 10.1402 21.4026 10.3185 21.2243C10.4969 21.0459 10.5971 20.8041 10.5971 20.5518V16.7479H14.401V20.5518C14.401 20.8041 14.5012 21.0459 14.6795 21.2243C14.8578 21.4026 15.0997 21.5028 15.3519 21.5028H18.2049C18.4571 21.5028 18.699 21.4026 18.8773 21.2243C19.0557 21.0459 19.1558 20.8041 19.1558 20.5518V13.895H21.0578C21.242 13.8958 21.4224 13.843 21.5771 13.743C21.7317 13.643 21.854 13.5002 21.9289 13.3319C22.0038 13.1637 22.0281 12.9773 21.9989 12.7954C21.9697 12.6136 21.8882 12.4442 21.7644 12.3078Z" fill="#457EFF"/>
</svg>
