<svg width="60" height="61" viewBox="0 0 60 61" fill="none" xmlns="http://www.w3.org/2000/svg">
<rect y="0.5" width="60" height="60" rx="30" fill="#457EFF" fill-opacity="0.14"/>
<path fill-rule="evenodd" clip-rule="evenodd" d="M28.8404 13.6667H31.1599C32.6269 13.6667 33.8366 13.6667 34.794 13.7954C35.7991 13.9305 36.6868 14.2252 37.3976 14.936C38.1084 15.6467 38.403 16.5345 38.5382 17.5396C38.6669 18.497 38.6669 19.7067 38.6668 21.1736V21.2501L38.7461 21.2501C40.7215 21.2501 42.3137 21.25 43.566 21.4184C44.8662 21.5932 45.9609 21.9672 46.8303 22.8366C47.6998 23.706 48.0737 24.8007 48.2485 26.1009C48.4169 27.3531 48.4169 28.9454 48.4168 30.9207V38.6628C48.4169 40.6381 48.4169 42.2304 48.2485 43.4826C48.0737 44.7828 47.6998 45.8775 46.8303 46.7469C45.9609 47.6164 44.8662 47.9903 43.566 48.1651C42.3137 48.3335 40.7215 48.3335 38.7461 48.3334H21.2543C19.2788 48.3335 17.6866 48.3335 16.4343 48.1651C15.1341 47.9903 14.0394 47.6164 13.17 46.7469C12.3006 45.8775 11.9266 44.7828 11.7518 43.4826C11.5834 42.2303 11.5835 40.6381 11.5835 38.6627V30.9208C11.5835 28.9454 11.5834 27.3532 11.7518 26.1009C11.9266 24.8007 12.3006 23.706 13.17 22.8366C14.0394 21.9672 15.1341 21.5932 16.4343 21.4184C17.6866 21.25 19.2788 21.2501 21.2542 21.2501L21.3335 21.2501L21.3335 21.1736C21.3335 19.7067 21.3334 18.497 21.4621 17.5396C21.5973 16.5345 21.8919 15.6467 22.6027 14.936C23.3135 14.2252 24.2012 13.9305 25.2063 13.7954C26.1637 13.6667 27.3735 13.6667 28.8404 13.6667ZM23.5002 21.2501H36.5002C36.5002 19.6874 36.4979 18.6244 36.3908 17.8283C36.288 17.0634 36.1067 16.7091 35.8656 16.468C35.6244 16.2269 35.2702 16.0456 34.5053 15.9427C33.7092 15.8357 32.6462 15.8334 31.0835 15.8334H28.9168C27.3541 15.8334 26.2911 15.8357 25.4951 15.9427C24.7302 16.0456 24.3759 16.2269 24.1348 16.468C23.8936 16.7091 23.7123 17.0634 23.6095 17.8283C23.5025 18.6244 23.5002 19.6874 23.5002 21.2501ZM27.5627 30.1876C27.5627 29.4304 27.5627 29.0519 27.6864 28.7532C27.8513 28.3551 28.1676 28.0387 28.5658 27.8738C28.8644 27.7501 29.243 27.7501 30.0002 27.7501C30.7573 27.7501 31.1359 27.7501 31.4345 27.8738C31.8327 28.0387 32.149 28.3551 32.314 28.7532C32.4377 29.0519 32.4377 29.4304 32.4377 30.1876V31.7346C32.4377 31.7714 32.4377 31.7897 32.4491 31.8012C32.4605 31.8126 32.4789 31.8126 32.5157 31.8126H34.0627C34.8198 31.8126 35.1984 31.8126 35.497 31.9363C35.8952 32.1012 36.2115 32.4176 36.3765 32.8157C36.5002 33.1144 36.5002 33.4929 36.5002 34.2501C36.5002 35.0072 36.5002 35.3858 36.3765 35.6844C36.2115 36.0826 35.8952 36.399 35.497 36.5639C35.1984 36.6876 34.8198 36.6876 34.0627 36.6876H32.5157C32.4789 36.6876 32.4605 36.6876 32.4491 36.699C32.4377 36.7104 32.4377 36.7288 32.4377 36.7656V38.3126C32.4377 39.0697 32.4377 39.4483 32.314 39.7469C32.149 40.1451 31.8327 40.4615 31.4345 40.6264C31.1359 40.7501 30.7573 40.7501 30.0002 40.7501C29.243 40.7501 28.8644 40.7501 28.5658 40.6264C28.1676 40.4615 27.8513 40.1451 27.6864 39.7469C27.5627 39.4483 27.5627 39.0697 27.5627 38.3126V36.7656C27.5627 36.7288 27.5627 36.7104 27.5512 36.699C27.5398 36.6876 27.5214 36.6876 27.4847 36.6876H25.9377C25.1805 36.6876 24.8019 36.6876 24.5033 36.5639C24.1051 36.399 23.7888 36.0826 23.6239 35.6844C23.5002 35.3858 23.5002 35.0072 23.5002 34.2501C23.5002 33.4929 23.5002 33.1144 23.6239 32.8157C23.7888 32.4176 24.1051 32.1012 24.5033 31.9363C24.8019 31.8126 25.1805 31.8126 25.9377 31.8126H27.4847C27.5214 31.8126 27.5398 31.8126 27.5512 31.8012C27.5627 31.7897 27.5627 31.7714 27.5627 31.7346V30.1876Z" fill="#22202A"/>
</svg>
