<svg width="60" height="60" viewBox="0 0 60 60" fill="none" xmlns="http://www.w3.org/2000/svg">
<rect width="60" height="60" rx="30" fill="#457EFF" fill-opacity="0.14"/>
<path d="M12.6709 15.8556L12.6711 15.826C12.6673 16.4166 12.1817 16.9374 11.5833 16.9911C10.9825 17.045 10.4955 16.6076 10.4955 16.0142L10.4955 16.0121C10.4987 14.9281 11.0398 13.816 11.9487 13.21C12.4782 12.857 13.1176 12.6711 13.8483 12.6711H36.8922C38.4974 12.6711 39.8176 13.5399 40.4488 14.8289C41.9572 14.8316 43.0466 14.8701 43.9799 15.3089C44.2838 15.4518 44.5705 15.6248 44.8358 15.8255C45.7303 16.5019 46.2456 17.5452 46.9886 19.0498C47.5439 20.174 48.0997 21.298 48.6557 22.4219H44.8113C43.6147 22.4219 42.5486 23.3872 42.4302 24.578L41.7869 31.0461C41.6092 32.8322 42.9203 34.2801 44.7152 34.2801H51.1716L50.8796 37.4849C50.5696 40.8847 47.6836 43.6723 44.314 43.9374C44.4464 41.9138 42.9372 40.2943 40.8868 40.2943C38.8295 40.2943 36.9927 41.9248 36.7323 43.958H25.4559C25.6 41.9248 24.0875 40.2943 22.0302 40.2943C19.9729 40.2943 18.1361 41.9248 17.8757 43.958H15.6227C11.4345 43.958 8.34767 40.5769 8.72798 36.406L8.93007 34.1896C8.9717 33.7321 9.01215 33.2875 9.0951 32.9207C9.18861 32.5073 9.36761 32.0356 9.79682 31.6437C10.226 31.2518 10.7121 31.1164 11.1323 31.0608C11.505 31.0115 11.9515 31.0116 12.4108 31.0117L35.2198 31.0117C36.4165 31.0117 37.4746 30.0457 37.5833 28.854L38.6654 16.9866C38.7755 15.7783 37.8879 14.8289 36.6955 14.8289H13.6516C13.0679 14.8289 12.7125 15.2437 12.6726 15.8024C12.6718 15.8174 12.6713 15.8386 12.6711 15.8492L12.6709 15.8556Z" fill="#22202A"/>
<path d="M43.2286 43.958H37.8163C38.0169 42.5203 39.3206 41.3723 40.7796 41.3723C42.2386 41.3723 43.3139 42.5203 43.2286 43.958Z" fill="#22202A"/>
<path d="M21.923 41.3723C23.382 41.3723 24.4573 42.5203 24.372 43.958H18.9597C19.1603 42.5203 20.464 41.3723 21.923 41.3723Z" fill="#22202A"/>
<path d="M51.3682 32.1241L51.466 31.0539C51.5604 30.0227 51.6259 29.3064 51.5009 28.6129C51.3758 27.919 51.0696 27.3007 50.6285 26.4095L49.7224 24.578H44.5968L43.9535 31.0461C43.8943 31.6414 44.3313 32.1241 44.9296 32.1241H51.3682Z" fill="#22202A"/>
<path d="M18.9465 44.0673C19.0946 42.5789 20.4272 41.3723 21.9229 41.3723C23.4187 41.3723 24.5112 42.5789 24.3632 44.0673C24.2152 45.5558 22.8826 46.7624 21.3868 46.7624C19.8911 46.7624 18.7985 45.5558 18.9465 44.0673Z" fill="#22202A"/>
<path d="M37.8035 44.0673C37.9515 42.5789 39.2841 41.3723 40.7799 41.3723C42.2756 41.3723 43.3682 42.5789 43.2201 44.0673C43.0721 45.5558 41.7395 46.7624 40.2438 46.7624C38.748 46.7624 37.6554 45.5558 37.8035 44.0673Z" fill="#22202A"/>
<path fill-rule="evenodd" clip-rule="evenodd" d="M8.3335 27.8333C8.3335 27.235 8.81852 26.75 9.41683 26.75H13.7502C14.3485 26.75 14.8335 27.235 14.8335 27.8333C14.8335 28.4316 14.3485 28.9167 13.7502 28.9167H9.41683C8.81852 28.9167 8.3335 28.4316 8.3335 27.8333Z" fill="#22202A"/>
<path fill-rule="evenodd" clip-rule="evenodd" d="M8.3335 23.4998C8.3335 22.9015 8.81852 22.4165 9.41683 22.4165H15.9168C16.5151 22.4165 17.0002 22.9015 17.0002 23.4998C17.0002 24.0981 16.5151 24.5832 15.9168 24.5832H9.41683C8.81852 24.5832 8.3335 24.0981 8.3335 23.4998Z" fill="#22202A"/>
<path fill-rule="evenodd" clip-rule="evenodd" d="M8.3335 19.1666C8.3335 18.5683 8.81852 18.0833 9.41683 18.0833H18.0835C18.6818 18.0833 19.1668 18.5683 19.1668 19.1666C19.1668 19.7649 18.6818 20.2499 18.0835 20.2499H9.41683C8.81852 20.2499 8.3335 19.7649 8.3335 19.1666Z" fill="#22202A"/>
<path d="M27.0172 18.7492C26.9166 18.9475 26.8937 19.1989 26.8479 19.7015L26.7542 20.7286C26.752 20.753 26.7509 20.7652 26.7426 20.7728C26.7343 20.7804 26.722 20.7804 26.6975 20.7804H25.6662C25.1614 20.7804 24.909 20.7804 24.7024 20.8625C24.427 20.972 24.197 21.182 24.0629 21.4464C23.9624 21.6447 23.9395 21.896 23.8936 22.3987C23.8478 22.9014 23.8249 23.1527 23.8892 23.351C23.9751 23.6153 24.1668 23.8253 24.4223 23.9348C24.6139 24.017 24.8663 24.017 25.3711 24.017H26.4024C26.4269 24.017 26.4392 24.017 26.4461 24.0246C26.453 24.0321 26.4519 24.0443 26.4497 24.0688L26.356 25.0958C26.3102 25.5985 26.2873 25.8499 26.3516 26.0481C26.4375 26.3125 26.6292 26.5225 26.8847 26.632C27.0763 26.7141 27.3287 26.7141 27.8335 26.7141C28.3382 26.7141 28.5906 26.7141 28.7972 26.632C29.0726 26.5225 29.3027 26.3125 29.4367 26.0481C29.5373 25.8499 29.5602 25.5985 29.606 25.0958L29.6997 24.0688C29.7019 24.0443 29.703 24.0321 29.7113 24.0246C29.7196 24.017 29.7319 24.017 29.7564 24.017H30.7877C31.2925 24.017 31.5449 24.017 31.7515 23.9348C32.0269 23.8253 32.2569 23.6153 32.391 23.351C32.4915 23.1527 32.5144 22.9014 32.5603 22.3987C32.6061 21.896 32.629 21.6447 32.5647 21.4464C32.4788 21.182 32.2871 20.972 32.0316 20.8625C31.84 20.7804 31.5876 20.7804 31.0828 20.7804H30.0515C30.027 20.7804 30.0147 20.7804 30.0078 20.7728C30.0009 20.7652 30.002 20.753 30.0042 20.7286L30.0979 19.7015C30.1437 19.1989 30.1666 18.9475 30.1023 18.7492C30.0164 18.4849 29.8247 18.2749 29.5692 18.1654C29.3776 18.0833 29.1252 18.0833 28.6204 18.0833C28.1157 18.0833 27.8633 18.0833 27.6567 18.1654C27.3813 18.2749 27.1512 18.4849 27.0172 18.7492Z" fill="#22202A"/>
</svg>
