<svg width="60" height="61" viewBox="0 0 60 61" fill="none" xmlns="http://www.w3.org/2000/svg">
<rect y="0.5" width="60" height="60" rx="30" fill="#457EFF" fill-opacity="0.14"/>
<path fill-rule="evenodd" clip-rule="evenodd" d="M18.2697 9.10693C17.4928 9.38572 16.9741 9.8825 16.5901 10.7153L16.3877 11.1542L16.422 19.3866C16.4409 23.9145 16.4406 27.619 16.4214 27.619C16.4023 27.619 16.2578 27.5821 16.1004 27.5369C15.6797 27.4163 15.2195 27.5696 15.0565 27.885C14.8745 28.2369 14.8879 28.3669 15.1364 28.6558C15.3293 28.8801 15.4009 28.9023 15.8908 28.8912L16.4321 28.8786V31.6162V34.3538L16.0677 34.7808C15.0234 36.0049 13.868 36.8338 13.3778 36.7108C12.97 36.6085 11.7462 35.3699 11.1778 34.4842C10.8151 33.919 10.5685 33.6301 10.3674 33.5347C10.1045 33.4099 10.0463 33.3024 9.72698 32.3499C9.43336 31.4742 9.37576 31.1849 9.37576 30.5859C9.37576 29.9706 9.40656 29.8244 9.59357 29.5514C9.94071 29.0448 10.2363 28.921 11.2301 28.8659C12.0491 28.8205 12.1209 28.8013 12.2829 28.5838C12.5203 28.265 12.427 27.8413 12.0799 27.6618C11.7452 27.4887 10.5672 27.4891 9.98331 27.6625C8.78818 28.0174 8 29.172 8 30.5679C8 31.2593 8.21275 32.2548 8.58013 33.2828C8.79989 33.8977 8.85768 34.166 8.79528 34.2824C8.6135 34.6221 8.70111 35.1164 9.04292 35.6802C9.76745 36.875 10.9322 37.9895 12.006 38.5152L12.6837 38.847L12.7434 39.6014C12.8744 41.2596 13.2969 42.6106 14.0619 43.8174C14.5614 44.6056 15.3656 45.5368 15.9055 45.9523L16.4321 46.3575V48.5551C16.4321 51.2576 16.4733 51.4475 17.2223 52.1965C18.1012 53.0754 17.1736 53.0165 29.6571 52.986L40.4413 52.9596L41.0317 52.6273C41.6947 52.2541 42.0868 51.759 42.3072 51.017C42.5066 50.3456 42.5052 11.8475 42.3058 11.0818C42.088 10.2457 41.6275 9.65519 40.8851 9.26021L40.4413 9.02403L29.524 9.00503C20.4969 8.98932 18.5484 9.00699 18.2697 9.10693ZM26.2153 11.5143C25.9621 11.6917 25.947 12.1308 26.1897 12.2606C26.2983 12.3188 27.4643 12.3525 29.3653 12.3525C31.9404 12.3525 32.3973 12.3328 32.5664 12.2143C32.8113 12.0428 32.819 11.7865 32.5862 11.5537C32.4157 11.3831 32.2903 11.3761 29.4106 11.3761C26.8408 11.3761 26.3844 11.3958 26.2153 11.5143ZM26.2399 14.832C20.5831 14.879 20.1848 14.8925 19.8937 15.0471C19.3663 15.3272 18.8405 15.905 18.6502 16.4136C18.4765 16.8777 18.4735 17.1254 18.4735 30.7877C18.4735 43.6737 18.4846 44.7247 18.6258 45.1724C18.8112 45.7604 19.3107 46.3509 19.8289 46.5944C20.2041 46.7708 20.3897 46.7749 29.3501 46.8048C39.6062 46.839 38.7599 46.8918 39.5451 46.168C39.8121 45.9219 40.0072 45.636 40.1274 45.3147C40.3065 44.8361 40.3082 44.6986 40.3082 30.8587C40.3082 16.9509 40.3073 16.8835 40.1246 16.3954C39.8834 15.7505 39.3932 15.2353 38.7911 14.9939C38.3335 14.8105 38.1702 14.801 35.2933 14.7917C33.6335 14.7864 29.5595 14.8045 26.2399 14.832ZM43.2372 17.0384V18.0137L44.5464 18.0493C45.5927 18.0778 45.918 18.1175 46.1663 18.2472C46.9756 18.67 47.1615 19.0735 47.176 20.4384L47.187 21.4755L48.0302 21.5204C48.4939 21.545 48.9632 21.5939 49.0731 21.629C49.2723 21.6926 49.2728 21.6903 49.2713 20.684C49.2704 20.1291 49.2111 19.3984 49.1395 19.0603C48.8978 17.9194 48.1333 16.9821 46.9819 16.4151C46.3932 16.1252 46.3902 16.1247 44.8148 16.0939L43.2372 16.0631V17.0384ZM28.6399 17.9542C27.4355 18.1297 26.4696 18.5569 25.4384 19.3703C23.9612 20.5354 23.4432 21.5732 23.4444 23.3658C23.4449 24.1428 23.6694 25.4674 23.8865 25.9739C23.9848 26.2034 24.0653 26.419 24.0653 26.4531C24.0653 26.4872 23.8832 26.5689 23.6605 26.6346C22.9485 26.8449 22.8687 27.2007 23.3095 28.2003C23.5278 28.6951 24.1014 29.2449 24.5556 29.3949C24.7943 29.4736 24.8515 29.5457 24.8959 29.8235C24.9732 30.3063 25.4261 31.1633 25.8448 31.6187C26.0439 31.8353 26.4183 32.2722 26.6768 32.5895C27.775 33.9375 28.5895 34.4253 29.5953 34.337C30.3991 34.2666 30.9368 33.8894 31.9985 32.6515C33.5014 30.8991 33.5188 30.8747 33.7303 30.2045C33.9071 29.6441 33.9698 29.5486 34.2571 29.4016C34.6774 29.1867 35.2887 28.5671 35.4823 28.1597C35.5657 27.9843 35.6517 27.6558 35.6736 27.4296C35.7234 26.9135 35.5008 26.6426 35.027 26.6426C34.6661 26.6426 34.6476 26.565 34.8505 25.8963C35.0359 25.2849 35.0182 25.1566 34.7271 25.0062C34.3287 24.8001 33.4972 24.0014 33.2812 23.6172C33.1739 23.4261 33.0596 23.2698 33.0274 23.2698C32.9951 23.2698 32.8931 23.3534 32.8006 23.4556C32.5594 23.7221 32.3616 23.8099 31.9213 23.8458C31.4764 23.882 30.1416 24.3883 29.3213 24.832C28.6813 25.1781 28.399 25.2047 27.9929 24.9572C27.4502 24.6263 27.6741 24.0917 28.3102 24.1991C28.608 24.2494 28.785 24.1956 29.5907 23.8088C30.1049 23.5621 30.8594 23.2734 31.2674 23.1675C31.6754 23.0614 32.1291 22.8805 32.2755 22.7653C32.8477 22.3152 33.201 22.1015 33.2859 22.1539C33.3347 22.1841 33.5244 22.4575 33.7075 22.7615C34.1625 23.5168 34.5376 23.9746 34.8223 24.1219C35.1625 24.2978 35.2065 24.1807 35.1932 23.1367C35.1809 22.1687 34.9863 21.4231 34.5769 20.7745C34.3176 20.3638 33.7124 19.7574 33.3893 19.5845C33.2649 19.518 32.9719 19.2628 32.7382 19.0175C32.1696 18.4206 31.4217 18.0707 30.4568 17.9496C29.6131 17.8439 29.3938 17.8444 28.6399 17.9542ZM47.2314 22.5859C45.4441 23.0939 44.8048 25.4014 46.0565 26.827C46.9061 27.7948 48.6523 27.8769 49.6528 26.9962C51.4067 25.4523 50.4576 22.6654 48.1236 22.506C47.8526 22.4876 47.451 22.5235 47.2314 22.5859ZM49.9385 28.0857C49.8409 28.1411 49.4415 28.2977 49.0509 28.4339C48.6272 28.5816 48.3485 28.7267 48.3597 28.7937C48.3702 28.8555 48.4615 29.4851 48.5627 30.193C48.6639 30.9008 48.7638 31.5399 48.7846 31.6131C48.8055 31.6863 48.9058 32.3254 49.0074 33.0333C49.1091 33.7411 49.2881 34.8794 49.405 35.5629C50.1663 40.0134 50.0755 42.7974 49.0877 45.2729C48.5491 46.6231 47.766 47.5571 46.7351 48.0788C46.2241 48.3373 46.1725 48.3448 44.7239 48.3722L43.2372 48.4002V49.3804V50.3606L44.8571 50.3196C46.2046 50.2853 46.559 50.2477 46.9651 50.0961C48.5467 49.5058 49.8474 48.2922 50.6891 46.6219C51.0674 45.8712 51.5361 44.4248 51.7173 43.4489C51.9126 42.3977 51.988 39.5483 51.8548 38.2543C51.6866 36.6197 50.3034 28.1695 50.1849 28.0529C50.147 28.0156 50.0361 28.0304 49.9385 28.0857ZM25.2165 33.3587C24.4247 33.8153 23.4698 34.26 22.5994 34.5774C21.4936 34.9807 20.9116 35.4037 20.5975 36.0321C20.2566 36.7143 20.1759 37.2336 20.1098 39.1712C20.0521 40.8594 20.0565 40.9268 20.2449 41.2621C20.352 41.4526 20.5264 41.6634 20.6326 41.7304C20.7924 41.8312 22.2842 41.8545 29.288 41.8655C38.5707 41.88 38.0719 41.9076 38.4747 41.358C38.6372 41.1363 38.6497 40.9878 38.6353 39.4497C38.6171 37.5323 38.5768 37.1365 38.3426 36.5813C38.0217 35.8201 37.6246 35.8031 37.0091 36.5239C36.4452 37.1841 35.7815 38.0663 35.7815 38.1553C35.7815 38.1974 35.9028 38.3034 36.0511 38.391C36.6979 38.7731 36.988 39.6946 36.6176 40.1907C36.1799 40.7769 36.0962 40.7996 34.3769 40.7996C32.5454 40.7996 32.3715 40.7463 32.052 40.0863C31.7395 39.4407 31.9203 38.812 32.5244 38.4436C32.7584 38.301 32.973 38.2706 33.75 38.2704L34.6918 38.27L35.2895 37.3751C35.6183 36.8828 36.1858 36.1845 36.5506 35.8232C36.9154 35.462 37.1904 35.1284 37.1617 35.082C37.133 35.0356 36.8008 34.877 36.4233 34.7294C35.4362 34.3438 34.4975 33.9207 33.7873 33.5412C33.4472 33.3594 33.1477 33.2117 33.1216 33.2128C33.0956 33.214 32.9154 33.4975 32.721 33.8429C32.3429 34.5151 31.934 34.9338 31.4638 35.1302C31.1506 35.261 27.9268 35.3097 27.3383 35.1926C26.936 35.1123 26.2276 34.3739 25.8822 33.6746L25.6133 33.13L25.2165 33.3587ZM15.9439 38.0171C15.7486 38.1178 15.3991 38.3199 15.1673 38.4663L14.7457 38.7323V39.2902C14.7457 40.6863 15.2651 42.2019 16.0274 43.0303L16.4251 43.4624L16.4285 40.6443C16.4305 39.0944 16.4021 37.828 16.3655 37.8301C16.3289 37.8324 16.1392 37.9165 15.9439 38.0171ZM32.9219 39.3864C32.8478 39.5489 32.8447 39.6581 32.9112 39.7637C32.9906 39.8898 33.2061 39.9157 34.3495 39.9366L35.6944 39.9611L35.7964 39.7372C35.8811 39.5514 35.871 39.4832 35.7375 39.3355C35.5906 39.1732 35.4646 39.1576 34.3013 39.1576H33.0261L32.9219 39.3864ZM26.0716 49.6449C25.919 49.8628 26.0011 50.1008 26.2805 50.2504C26.3865 50.3072 27.5806 50.3412 29.4675 50.3412C32.7302 50.3412 32.7637 50.3363 32.7637 49.8645C32.7637 49.4578 32.729 49.4536 29.3782 49.4536C26.2303 49.4536 26.2046 49.4551 26.0716 49.6449Z" fill="black"/>
</svg>
