<svg width="60" height="61" viewBox="0 0 60 61" fill="none" xmlns="http://www.w3.org/2000/svg">
<rect y="0.5" width="60" height="60" rx="30" fill="#457EFF" fill-opacity="0.14"/>
<path d="M12.671 16.3556L12.6711 16.326C12.6674 16.9166 12.1818 17.4374 11.5834 17.4911C10.9826 17.545 10.4956 17.1076 10.4956 16.5142L10.4956 16.5121C10.4987 15.4281 11.0398 14.316 11.9488 13.71C12.4782 13.357 13.1177 13.1711 13.8484 13.1711H36.8923C38.4974 13.1711 39.8176 14.0399 40.4488 15.3289C41.9573 15.3316 43.0466 15.3701 43.9799 15.8089C44.2839 15.9518 44.5705 16.1248 44.8359 16.3255C45.7304 17.0019 46.2457 18.0452 46.9887 19.5498C47.5439 20.674 48.0998 21.798 48.6557 22.9219H44.8113C43.6147 22.9219 42.5487 23.8872 42.4302 25.078L41.7869 31.546C41.6093 33.3322 42.9203 34.7801 44.7153 34.7801H51.1717L50.8797 37.9849C50.5696 41.3847 47.6836 44.1723 44.314 44.4374C44.4464 42.4138 42.9373 40.7943 40.8869 40.7943C38.8296 40.7943 36.9928 42.4248 36.7324 44.458H25.456C25.6001 42.4248 24.0876 40.7943 22.0303 40.7943C19.9729 40.7943 18.1361 42.4248 17.8758 44.458H15.6228C11.4346 44.458 8.34773 41.0769 8.72804 36.906L8.93013 34.6896C8.97176 34.2321 9.01221 33.7875 9.09516 33.4207C9.18867 33.0073 9.36767 32.5356 9.79688 32.1437C10.2261 31.7518 10.7122 31.6164 11.1324 31.5608C11.5051 31.5115 11.9515 31.5116 12.4109 31.5117L35.2199 31.5117C36.4165 31.5117 37.4747 30.5457 37.5833 29.354L38.6654 17.4866C38.7756 16.2783 37.888 15.3289 36.6955 15.3289H13.6517C13.068 15.3289 12.7126 15.7437 12.6727 16.3024C12.6719 16.3174 12.6714 16.3386 12.6712 16.3492L12.671 16.3556Z" fill="#22202A"/>
<path d="M43.2286 44.458H37.8164C38.017 43.0203 39.3207 41.8723 40.7797 41.8723C42.2387 41.8723 43.314 43.0203 43.2286 44.458Z" fill="#22202A"/>
<path d="M21.923 41.8723C23.382 41.8723 24.4574 43.0203 24.372 44.458H18.9597C19.1604 43.0203 20.4641 41.8723 21.923 41.8723Z" fill="#22202A"/>
<path d="M51.3683 32.6241L51.4661 31.5539C51.5604 30.5227 51.6259 29.8064 51.5009 29.1129C51.3758 28.419 51.0697 27.8007 50.6285 26.9095L49.7225 25.078H44.5969L43.9536 31.546C43.8944 32.1414 44.3314 32.6241 44.9297 32.6241H51.3683Z" fill="#22202A"/>
<path d="M18.9467 44.5674C19.0947 43.079 20.4273 41.8724 21.923 41.8724C23.4188 41.8724 24.5114 43.079 24.3633 44.5674C24.2153 46.0558 22.8827 47.2624 21.3869 47.2624C19.8912 47.2624 18.7986 46.0558 18.9467 44.5674Z" fill="#22202A"/>
<path d="M37.8033 44.5674C37.9514 43.079 39.284 41.8724 40.7797 41.8724C42.2755 41.8724 43.3681 43.079 43.22 44.5674C43.072 46.0558 41.7394 47.2624 40.2436 47.2624C38.7479 47.2624 37.6553 46.0558 37.8033 44.5674Z" fill="#22202A"/>
<path fill-rule="evenodd" clip-rule="evenodd" d="M8.33331 28.3333C8.33331 27.735 8.81834 27.25 9.41665 27.25H13.75C14.3483 27.25 14.8333 27.735 14.8333 28.3333C14.8333 28.9316 14.3483 29.4167 13.75 29.4167H9.41665C8.81834 29.4167 8.33331 28.9316 8.33331 28.3333Z" fill="#22202A"/>
<path fill-rule="evenodd" clip-rule="evenodd" d="M8.33331 24C8.33331 23.4017 8.81834 22.9166 9.41665 22.9166H15.9166C16.515 22.9166 17 23.4017 17 24C17 24.5983 16.515 25.0833 15.9166 25.0833H9.41665C8.81834 25.0833 8.33331 24.5983 8.33331 24Z" fill="#22202A"/>
<path fill-rule="evenodd" clip-rule="evenodd" d="M8.33331 19.6666C8.33331 19.0683 8.81834 18.5833 9.41665 18.5833H18.0833C18.6816 18.5833 19.1666 19.0683 19.1666 19.6666C19.1666 20.265 18.6816 20.75 18.0833 20.75H9.41665C8.81834 20.75 8.33331 20.265 8.33331 19.6666Z" fill="#22202A"/>
<path d="M27.0171 19.2493C26.9165 19.4476 26.8936 19.6989 26.8478 20.2016L26.7541 21.2287C26.7519 21.2531 26.7508 21.2653 26.7425 21.2729C26.7342 21.2805 26.7219 21.2805 26.6974 21.2805H25.6661C25.1613 21.2805 24.9089 21.2805 24.7023 21.3626C24.4269 21.4721 24.1968 21.6821 24.0628 21.9465C23.9622 22.1447 23.9393 22.3961 23.8935 22.8987C23.8477 23.4014 23.8247 23.6528 23.8891 23.851C23.975 24.1154 24.1667 24.3254 24.4222 24.4349C24.6138 24.517 24.8662 24.517 25.3709 24.517H26.4023C26.4268 24.517 26.439 24.517 26.446 24.5246C26.4529 24.5322 26.4518 24.5444 26.4495 24.5688L26.3559 25.5959C26.3101 26.0986 26.2871 26.3499 26.3515 26.5482C26.4374 26.8125 26.6291 27.0226 26.8846 27.1321C27.0762 27.2142 27.3286 27.2142 27.8333 27.2142C28.3381 27.2142 28.5905 27.2142 28.7971 27.1321C29.0725 27.0226 29.3025 26.8125 29.4366 26.5482C29.5371 26.3499 29.5601 26.0986 29.6059 25.5959L29.6995 24.5688C29.7018 24.5444 29.7029 24.5322 29.7112 24.5246C29.7195 24.517 29.7318 24.517 29.7563 24.517H30.7876C31.2924 24.517 31.5448 24.517 31.7513 24.4349C32.0268 24.3254 32.2568 24.1154 32.3909 23.851C32.4914 23.6528 32.5143 23.4014 32.5602 22.8987C32.606 22.3961 32.6289 22.1447 32.5645 21.9465C32.4787 21.6821 32.2869 21.4721 32.0315 21.3626C31.8399 21.2805 31.5875 21.2805 31.0827 21.2805H30.0514C30.0269 21.2805 30.0146 21.2805 30.0077 21.2729C30.0008 21.2653 30.0019 21.2531 30.0041 21.2287L30.0978 20.2016C30.1436 19.6989 30.1665 19.4476 30.1021 19.2493C30.0163 18.985 29.8245 18.7749 29.5691 18.6654C29.3775 18.5833 29.1251 18.5833 28.6203 18.5833C28.1156 18.5833 27.8632 18.5833 27.6566 18.6654C27.3812 18.7749 27.1511 18.985 27.0171 19.2493Z" fill="#22202A"/>
</svg>
