<svg width="60" height="61" viewBox="0 0 60 61" fill="none" xmlns="http://www.w3.org/2000/svg">
<rect y="0.5" width="60" height="60" rx="30" fill="#457EFF" fill-opacity="0.14"/>
<path fill-rule="evenodd" clip-rule="evenodd" d="M28.8401 13.6667H31.1597C32.6266 13.6667 33.8364 13.6667 34.7937 13.7954C35.7989 13.9305 36.6866 14.2252 37.3974 14.936C38.1082 15.6467 38.4028 16.5345 38.5379 17.5396C38.6667 18.497 38.6666 19.7067 38.6666 21.1736V21.2501L38.7458 21.2501C40.7213 21.2501 42.3135 21.25 43.5658 21.4184C44.8659 21.5932 45.9606 21.9672 46.8301 22.8366C47.6995 23.706 48.0735 24.8007 48.2483 26.1009C48.4166 27.3531 48.4166 28.9454 48.4166 30.9207V38.6628C48.4166 40.6381 48.4166 42.2304 48.2483 43.4826C48.0735 44.7828 47.6995 45.8775 46.8301 46.7469C45.9606 47.6164 44.8659 47.9903 43.5658 48.1651C42.3135 48.3335 40.7212 48.3335 38.7458 48.3334H21.254C19.2786 48.3335 17.6863 48.3335 16.4341 48.1651C15.1339 47.9903 14.0392 47.6164 13.1698 46.7469C12.3003 45.8775 11.9264 44.7828 11.7516 43.4826C11.5832 42.2303 11.5832 40.6381 11.5833 38.6627V30.9208C11.5832 28.9454 11.5832 27.3532 11.7516 26.1009C11.9264 24.8007 12.3003 23.706 13.1698 22.8366C14.0392 21.9672 15.1339 21.5932 16.4341 21.4184C17.6863 21.25 19.2786 21.2501 21.254 21.2501L21.3333 21.2501L21.3333 21.1736C21.3332 19.7067 21.3332 18.497 21.4619 17.5396C21.597 16.5345 21.8917 15.6467 22.6025 14.936C23.3132 14.2252 24.201 13.9305 25.2061 13.7954C26.1635 13.6667 27.3732 13.6667 28.8401 13.6667ZM23.4999 21.2501H36.4999C36.4999 19.6874 36.4976 18.6244 36.3906 17.8283C36.2878 17.0634 36.1064 16.7091 35.8653 16.468C35.6242 16.2269 35.2699 16.0456 34.505 15.9427C33.709 15.8357 32.6459 15.8334 31.0833 15.8334H28.9166C27.3539 15.8334 26.2909 15.8357 25.4948 15.9427C24.7299 16.0456 24.3756 16.2269 24.1345 16.468C23.8934 16.7091 23.7121 17.0634 23.6092 17.8283C23.5022 18.6244 23.4999 19.6874 23.4999 21.2501ZM27.5624 30.1876C27.5624 29.4304 27.5624 29.0519 27.6861 28.7532C27.851 28.3551 28.1674 28.0387 28.5656 27.8738C28.8642 27.7501 29.2428 27.7501 29.9999 27.7501C30.7571 27.7501 31.1356 27.7501 31.4343 27.8738C31.8324 28.0387 32.1488 28.3551 32.3137 28.7532C32.4374 29.0519 32.4374 29.4304 32.4374 30.1876V31.7346C32.4374 31.7714 32.4374 31.7897 32.4488 31.8012C32.4603 31.8126 32.4786 31.8126 32.5154 31.8126H34.0624C34.8196 31.8126 35.1982 31.8126 35.4968 31.9363C35.8949 32.1012 36.2113 32.4176 36.3762 32.8157C36.4999 33.1144 36.4999 33.4929 36.4999 34.2501C36.4999 35.0072 36.4999 35.3858 36.3762 35.6844C36.2113 36.0826 35.8949 36.399 35.4968 36.5639C35.1982 36.6876 34.8196 36.6876 34.0624 36.6876H32.5154C32.4786 36.6876 32.4603 36.6876 32.4488 36.699C32.4374 36.7104 32.4374 36.7288 32.4374 36.7656V38.3126C32.4374 39.0697 32.4374 39.4483 32.3137 39.7469C32.1488 40.1451 31.8324 40.4615 31.4343 40.6264C31.1356 40.7501 30.7571 40.7501 29.9999 40.7501C29.2428 40.7501 28.8642 40.7501 28.5656 40.6264C28.1674 40.4615 27.851 40.1451 27.6861 39.7469C27.5624 39.4483 27.5624 39.0697 27.5624 38.3126V36.7656C27.5624 36.7288 27.5624 36.7104 27.551 36.699C27.5396 36.6876 27.5212 36.6876 27.4844 36.6876H25.9374C25.1803 36.6876 24.8017 36.6876 24.5031 36.5639C24.1049 36.399 23.7885 36.0826 23.6236 35.6844C23.4999 35.3858 23.4999 35.0072 23.4999 34.2501C23.4999 33.4929 23.4999 33.1144 23.6236 32.8157C23.7885 32.4176 24.1049 32.1012 24.5031 31.9363C24.8017 31.8126 25.1803 31.8126 25.9374 31.8126H27.4844C27.5212 31.8126 27.5396 31.8126 27.551 31.8012C27.5624 31.7897 27.5624 31.7714 27.5624 31.7346V30.1876Z" fill="#22202A"/>
</svg>
