<svg width="60" height="61" viewBox="0 0 60 61" fill="none" xmlns="http://www.w3.org/2000/svg">
<rect y="0.5" width="60" height="60" rx="30" fill="#457EFF" fill-opacity="0.14"/>
<path fill-rule="evenodd" clip-rule="evenodd" d="M28.089 7.06423C26.9393 7.18232 24.6461 7.62764 23.5868 7.93857C21.5313 8.54188 18.8708 9.72941 17.2502 10.767C15.7007 11.7589 13.5526 13.6474 12.1955 15.2109C10.8564 16.7537 9.20547 19.4895 8.37246 21.546C6.8894 25.2074 6.57208 30.4974 7.59778 34.4584C8.68607 38.6613 11.6736 43.3377 14.9381 45.9486L15.4652 46.37L15.1919 47.1737C14.812 48.291 14.7335 49.2853 14.9465 50.2833C15.3399 52.1266 16.5541 53.7101 18.1184 54.4198C19.1575 54.8912 19.6619 54.9968 20.8913 55C23.1964 55.0059 25.1727 53.7919 26.2183 51.7277C27.0469 50.0923 26.9543 47.8703 25.9903 46.2509C25.2743 45.0482 23.7626 43.9387 22.3586 43.5851C21.5447 43.3803 20.1921 43.3512 19.4369 43.5224C18.9283 43.6377 17.751 44.1605 17.443 44.4078C17.2315 44.5775 16.8386 44.2782 15.4464 42.8871C12.3022 39.7451 10.0637 35.3336 9.8092 31.7771L9.73656 30.7629H12.1574H14.5782L14.973 30.4077C15.3084 30.1058 15.3763 29.9662 15.4239 29.479C15.4913 28.7904 15.2639 28.2928 14.7347 27.9717C14.4155 27.778 14.1855 27.7597 12.0609 27.7597H9.73646L9.79959 26.8213C9.93373 24.829 10.7627 22.2181 11.9092 20.1771C13.9608 16.5251 17.0135 13.6316 20.7513 11.7957C22.6868 10.8451 23.9056 10.4434 26.1719 10.0096C27.7978 9.69831 28.024 9.68672 28.4318 9.89373C28.9165 10.1398 28.9938 10.4597 28.9938 12.2182C28.9938 14.0944 29.0682 14.3206 29.7996 14.6683C30.3178 14.9146 30.6794 14.8917 31.166 14.5821C31.6264 14.2893 31.7247 13.8517 31.7247 12.0932V10.4702L32.096 10.1056C32.3766 9.83012 32.5607 9.74089 32.8489 9.74089C33.7982 9.74089 37.389 10.632 38.6551 11.1818C39.01 11.3359 39.3308 11.4246 39.368 11.379C39.4052 11.3334 39.5018 11.103 39.5828 10.8671C39.6638 10.6311 39.8978 10.1793 40.1029 9.86326C40.3081 9.54708 40.4583 9.27122 40.4369 9.25009C40.3686 9.18316 39.124 8.65654 38.3879 8.38314C37.3385 7.99349 34.9987 7.41517 33.6908 7.22211C32.2784 7.0136 29.3777 6.93187 28.089 7.06423ZM44.5595 8.11779C42.6847 8.64678 41.1687 10.1004 40.6373 11.8787C40.4241 12.5926 40.4134 13.9984 40.6157 14.7443C41.0017 16.1678 42.2174 17.5656 43.6915 18.281C44.4924 18.6697 44.6147 18.697 45.717 18.734C46.6167 18.7643 47.0257 18.7303 47.4725 18.588C49.6721 17.888 51.2446 16.0481 51.5506 13.8166C51.644 13.1363 51.3528 11.7949 50.9268 10.9424C49.8039 8.69547 46.9691 7.4379 44.5595 8.11779ZM44.7234 10.0844C44.3636 10.3233 44.3392 10.3773 44.3085 11.0049L44.2761 11.6715H43.6866C43.2209 11.6715 43.0327 11.7259 42.7906 11.9303C42.4894 12.1847 42.4841 12.2095 42.4841 13.367C42.4841 14.8425 42.5683 14.9715 43.5616 15.0184L44.2318 15.05L44.2869 15.6935C44.3172 16.0475 44.3847 16.4023 44.4368 16.4821C44.7154 16.9083 46.3785 17.0904 47.0195 16.765C47.4233 16.56 47.5635 16.3018 47.5635 15.763C47.5635 15.0501 47.6184 14.9964 48.3482 14.9964C48.9233 14.9964 49.038 14.9594 49.3196 14.6829C49.6245 14.3835 49.6389 14.3264 49.6389 13.4196C49.6389 12.759 49.5902 12.4017 49.4789 12.2456C49.2447 11.9173 48.6396 11.6715 48.0658 11.6715H47.5635V11.0466C47.5635 10.5138 47.5219 10.3836 47.2817 10.1618C47.0365 9.93545 46.8771 9.89716 46.0529 9.86627C45.2038 9.83431 45.0662 9.85694 44.7234 10.0844ZM45.2185 10.6367C45.0697 10.7436 44.9995 10.9761 44.9519 11.5215L44.8872 12.2614L44.1663 12.315C43.2021 12.3868 43.0849 12.4978 43.0849 13.3394C43.0849 14.2118 43.2198 14.3529 44.0539 14.3529C44.3981 14.3529 44.7387 14.4108 44.8108 14.4816C44.8829 14.5524 44.9425 14.8541 44.9434 15.1519C44.9461 16.1749 44.9599 16.1892 45.9115 16.1537L46.7442 16.1226L46.8186 15.3829C46.8614 14.9578 46.9625 14.5752 47.0563 14.4831C47.153 14.3883 47.538 14.2941 47.9993 14.2526C48.4988 14.2076 48.8152 14.1263 48.8796 14.0263C49.0649 13.7386 48.9968 13.0041 48.757 12.7049C48.5558 12.4536 48.4552 12.4223 47.8504 12.4223C47.467 12.4223 47.113 12.3661 47.0391 12.2936C46.9652 12.2209 46.9081 11.873 46.9081 11.4953C46.9081 10.9249 46.8721 10.8009 46.6652 10.6587C46.3665 10.4532 45.4927 10.4399 45.2185 10.6367ZM26.4268 16.3312C24.7395 16.7631 23.6931 17.2342 22.2074 18.2309C21.1033 18.9715 19.543 20.5219 18.809 21.6074C17.9766 22.8389 17.7225 22.7188 21.1614 22.7188H24.1663L24.3983 21.9412C25.0406 19.788 26.0504 18.014 27.4509 16.5784C27.9175 16.1 27.9314 16.0693 27.6789 16.0742C27.531 16.0771 26.9675 16.1927 26.4268 16.3312ZM33.5042 16.6034C34.6879 17.6656 35.7977 19.6231 36.3907 21.6941L36.6839 22.7188H39.623C42.1577 22.7188 42.5537 22.6972 42.5008 22.5618C42.3754 22.2412 41.4404 20.9275 40.8793 20.2839C39.0204 18.1514 36.1878 16.5822 33.3668 16.1218L32.8788 16.0422L33.5042 16.6034ZM29.3215 16.6878C28.6017 16.9234 27.2241 18.339 26.6195 19.4643C26.162 20.3158 25.3891 22.2623 25.3891 22.5632C25.3891 22.6942 25.7517 22.7188 27.683 22.7188H29.9769V19.6683C29.9769 17.9905 29.9401 16.5974 29.895 16.5724C29.8499 16.5474 29.5919 16.5993 29.3215 16.6878ZM31.1785 19.662V22.7188H33.3631C34.5907 22.7188 35.5478 22.6763 35.5478 22.6219C35.5478 22.5686 35.3718 22.0257 35.1568 21.4153C34.6359 19.9374 33.8956 18.6216 33.1523 17.8531C32.5795 17.2609 31.6181 16.6084 31.315 16.6062C31.209 16.6054 31.1785 17.2876 31.1785 19.662ZM50.054 18.7865C49.772 18.9833 49.2929 19.2601 48.9893 19.4017C48.6857 19.5433 48.4373 19.6922 48.4373 19.7329C48.4373 19.7735 48.6655 20.2569 48.9443 20.8069C49.8487 22.5911 50.5038 24.8702 50.7809 27.1967L50.848 27.7597H48.3736H45.8993L45.4842 28.1672C44.7516 28.8867 44.7874 29.9362 45.5647 30.5188L45.962 30.8165L48.3465 30.8491L50.7312 30.8817L50.7308 31.2781C50.7299 32.0875 50.3829 33.7508 49.9544 34.9995C48.0375 40.586 43.828 44.9758 38.3333 47.1187C36.1759 47.96 33.0152 48.611 32.3674 48.3476C31.7816 48.1094 31.7247 47.9202 31.7242 46.2105C31.7239 44.837 31.6978 44.6104 31.5033 44.2974C31.0305 43.5358 29.9313 43.4506 29.3249 44.1287L28.9938 44.4991V46.1601V47.8213L28.5693 48.2747L28.1448 48.7281L28.1031 49.9389C28.0616 51.1474 28.0621 51.1499 28.3278 51.2154C28.7579 51.3214 32.5608 51.1603 33.7041 50.9877C38.9513 50.1954 43.3283 48.0873 46.8577 44.6524C47.9603 43.5793 49.5394 41.6328 50.3316 40.3699C51.5314 38.4576 52.5695 35.8372 53.0969 33.3906C53.3793 32.0806 53.3976 31.8309 53.3999 29.2613C53.402 26.8351 53.3744 26.3931 53.1554 25.3465C52.7077 23.2069 52.2912 21.8578 51.6654 20.52C51.198 19.5209 50.6376 18.4286 50.5925 18.4286C50.5783 18.4286 50.336 18.5897 50.054 18.7865ZM17.2702 24.6391C16.9086 25.5967 16.6505 26.9463 16.6505 27.8788V28.6178H20.0367H23.4229V27.887C23.4229 27.2413 23.5933 25.6988 23.8132 24.3544L23.8878 23.8986H20.7188H17.5497L17.2702 24.6391ZM25.0114 24.1399C24.7691 25.2186 24.4526 28.3026 24.5568 28.5693C24.6077 28.6996 25.0551 28.725 27.2973 28.725H29.9769V26.3118V23.8986H27.5212H25.0656L25.0114 24.1399ZM31.1785 26.3118V28.725H33.762H36.3454L36.2789 27.6793C36.2058 26.531 35.9016 24.1341 35.8107 23.9897C35.7792 23.9395 34.7241 23.8986 33.4659 23.8986H31.1785V26.3118ZM37.0116 24.1935C37.1234 24.7325 37.2805 26.1892 37.3587 27.4112L37.4359 28.6178H40.8192H44.2024L44.1303 28.0011C44.0013 26.8981 43.734 25.606 43.4564 24.7433L43.1846 23.8986H40.0676H36.9505L37.0116 24.1935ZM16.5961 29.9045C16.3995 30.217 16.9963 33.3202 17.4 34.0843L17.6003 34.4632L20.7301 34.4916C22.8157 34.5106 23.8599 34.4834 23.8599 34.4101C23.8599 34.3495 23.7818 33.83 23.6863 33.2554C23.5908 32.6809 23.4802 31.6799 23.4405 31.031L23.3683 29.8512L20.0168 29.8229C17.8141 29.8042 16.6416 29.8322 16.5961 29.9045ZM24.5771 29.8934C24.5027 30.0116 24.7024 32.6203 24.853 33.4979C25.0472 34.6291 24.7526 34.5168 27.5265 34.5168H29.9769V32.1572V29.7976H27.3072C25.8387 29.7976 24.6103 29.8407 24.5771 29.8934ZM31.1785 32.1572V34.5168H33.5184H35.8581L35.9193 34.2219C36.0311 33.6829 36.1881 32.2262 36.2663 31.0042L36.3436 29.7976H33.761H31.1785V32.1572ZM37.4039 30.6809C37.4035 31.1684 37.3297 32.1447 37.2401 32.8503C37.1504 33.5559 37.0771 34.2196 37.0771 34.3251C37.0771 34.5047 37.2701 34.5168 40.118 34.5168H43.1591L43.2747 34.2676C43.6094 33.5463 44.0312 31.5483 44.0937 30.3875L44.1226 29.8512L40.7637 29.8229L37.4048 29.7945L37.4039 30.6809ZM18.1797 35.7652C18.1797 36.0164 19.5985 37.8447 20.4168 38.6481C22.3907 40.5859 24.8666 41.8575 27.5136 42.2931L27.945 42.3641L27.2195 41.6092C26.0039 40.3438 25.1836 38.8909 24.5019 36.796L24.1442 35.6966H21.162C19.5218 35.6966 18.1797 35.7274 18.1797 35.7652ZM25.3891 35.8373C25.3891 35.9148 25.5365 36.4061 25.7165 36.9293C26.525 39.2778 27.8071 41.0055 29.2888 41.7434C30.0098 42.1023 29.9769 42.2425 29.9769 38.807V35.6966H27.683C25.8625 35.6966 25.3891 35.7257 25.3891 35.8373ZM31.1785 38.8043V41.9121L31.4589 41.8074C32.6294 41.3704 33.6401 40.316 34.4887 38.6461C34.8844 37.8675 35.5478 36.1155 35.5478 35.8489C35.5478 35.7225 35.1777 35.6966 33.3631 35.6966H31.1785V38.8043ZM36.5782 36.3133C35.8684 38.7833 35.0849 40.2476 33.7623 41.5762L32.9808 42.3614L33.4178 42.2861C35.8816 41.8618 38.3393 40.5715 40.2472 38.7007C41.1598 37.8059 42.2987 36.3705 42.4954 35.8675C42.5553 35.7138 42.2696 35.6966 39.6588 35.6966H36.7555L36.5782 36.3133Z" fill="black"/>
</svg>
