<svg width="60" height="61" viewBox="0 0 60 61" fill="none" xmlns="http://www.w3.org/2000/svg">
<rect y="0.5" width="60" height="60" rx="30" fill="#457EFF" fill-opacity="0.14"/>
<path fill-rule="evenodd" clip-rule="evenodd" d="M19.1641 12.2603C20.1768 11.6804 21.375 11.7144 22.3524 12.1911C27.138 14.5257 32.869 14.5282 37.6566 12.1977C38.645 11.7166 39.858 11.6886 40.8755 12.2861L48.3859 16.697C49.0677 17.1086 49.4972 17.8628 49.4997 18.6609L49.4997 18.6641C49.5033 31.5648 42.4147 43.7418 31.244 50.1678C30.4817 50.606 29.5184 50.6062 28.7561 50.168C17.5499 43.7217 10.4549 31.4892 10.5 18.5479C10.5025 17.7498 10.932 16.9957 11.6138 16.584L11.6352 16.5711L19.1641 12.2603ZM27.1563 24.0937C27.1563 23.2103 27.1563 22.7687 27.3006 22.4203C27.493 21.9557 27.8621 21.5867 28.3266 21.3942C28.675 21.2499 29.1167 21.2499 30 21.2499C30.8834 21.2499 31.325 21.2499 31.6734 21.3942C32.138 21.5867 32.507 21.9557 32.6995 22.4203C32.8438 22.7687 32.8438 23.2103 32.8438 24.0937V25.8985C32.8438 25.9414 32.8438 25.9629 32.8571 25.9762C32.8704 25.9895 32.8919 25.9895 32.9348 25.9895H34.7396C35.623 25.9895 36.0646 25.9895 36.413 26.1338C36.8776 26.3262 37.2466 26.6953 37.439 27.1598C37.5834 27.5082 37.5834 27.9499 37.5834 28.8333C37.5834 29.7166 37.5834 30.1583 37.439 30.5067C37.2466 30.9712 36.8776 31.3403 36.413 31.5327C36.0646 31.677 35.623 31.677 34.7396 31.677H32.9348C32.8919 31.677 32.8704 31.677 32.8571 31.6903C32.8438 31.7037 32.8438 31.7251 32.8438 31.768V33.5728C32.8438 34.4562 32.8438 34.8979 32.6995 35.2463C32.507 35.7108 32.138 36.0799 31.6734 36.2723C31.325 36.4166 30.8834 36.4166 30 36.4166C29.1167 36.4166 28.675 36.4166 28.3266 36.2723C27.8621 36.0799 27.493 35.7108 27.3006 35.2463C27.1563 34.8979 27.1563 34.4562 27.1563 33.5728V31.768C27.1563 31.7251 27.1563 31.7037 27.1429 31.6903C27.1296 31.677 27.1082 31.677 27.0653 31.677H25.2604C24.3771 31.677 23.9354 31.677 23.587 31.5327C23.1225 31.3403 22.7534 30.9712 22.561 30.5067C22.4167 30.1583 22.4167 29.7166 22.4167 28.8333C22.4167 27.9499 22.4167 27.5082 22.561 27.1598C22.7534 26.6953 23.1225 26.3262 23.587 26.1338C23.9354 25.9895 24.3771 25.9895 25.2604 25.9895H27.0653C27.1082 25.9895 27.1296 25.9895 27.1429 25.9762C27.1563 25.9629 27.1563 25.9414 27.1563 25.8985V24.0937Z" fill="#22202A"/>
</svg>
