<svg width="60" height="60" viewBox="0 0 60 60" fill="none" xmlns="http://www.w3.org/2000/svg">
<rect width="60" height="60" rx="30" fill="#457EFF" fill-opacity="0.14"/>
<path fill-rule="evenodd" clip-rule="evenodd" d="M18.2697 8.60693C17.4928 8.88572 16.9741 9.3825 16.5901 10.2153L16.3877 10.6542L16.422 18.8866C16.4409 23.4145 16.4406 27.119 16.4214 27.119C16.4023 27.119 16.2578 27.0821 16.1004 27.0369C15.6797 26.9163 15.2195 27.0696 15.0565 27.385C14.8745 27.7369 14.8879 27.8669 15.1364 28.1558C15.3293 28.3801 15.4009 28.4023 15.8908 28.3912L16.4321 28.3786V31.1162V33.8538L16.0677 34.2808C15.0234 35.5049 13.868 36.3338 13.3778 36.2108C12.97 36.1085 11.7462 34.8699 11.1778 33.9842C10.8151 33.419 10.5685 33.1301 10.3674 33.0347C10.1045 32.9099 10.0463 32.8024 9.72698 31.8499C9.43336 30.9742 9.37576 30.6849 9.37576 30.0859C9.37576 29.4706 9.40656 29.3244 9.59357 29.0514C9.94071 28.5448 10.2363 28.421 11.2301 28.3659C12.0491 28.3205 12.1209 28.3013 12.2829 28.0838C12.5203 27.765 12.427 27.3413 12.0799 27.1618C11.7452 26.9887 10.5672 26.9891 9.98331 27.1625C8.78818 27.5174 8 28.672 8 30.0679C8 30.7593 8.21275 31.7548 8.58013 32.7828C8.79989 33.3977 8.85768 33.666 8.79528 33.7824C8.6135 34.1221 8.70111 34.6164 9.04292 35.1802C9.76745 36.375 10.9322 37.4895 12.006 38.0152L12.6837 38.347L12.7434 39.1014C12.8744 40.7596 13.2969 42.1106 14.0619 43.3174C14.5614 44.1056 15.3656 45.0368 15.9055 45.4523L16.4321 45.8575V48.0551C16.4321 50.7576 16.4733 50.9475 17.2223 51.6965C18.1012 52.5754 17.1736 52.5165 29.6571 52.486L40.4413 52.4596L41.0317 52.1273C41.6947 51.7541 42.0868 51.259 42.3072 50.517C42.5066 49.8456 42.5052 11.3475 42.3058 10.5818C42.088 9.7457 41.6275 9.15519 40.8851 8.76021L40.4413 8.52403L29.524 8.50503C20.4969 8.48932 18.5484 8.50699 18.2697 8.60693ZM26.2153 11.0143C25.9621 11.1917 25.947 11.6308 26.1897 11.7606C26.2983 11.8188 27.4643 11.8525 29.3653 11.8525C31.9404 11.8525 32.3973 11.8328 32.5664 11.7143C32.8113 11.5428 32.819 11.2865 32.5862 11.0537C32.4157 10.8831 32.2903 10.8761 29.4106 10.8761C26.8408 10.8761 26.3844 10.8958 26.2153 11.0143ZM26.2399 14.332C20.5831 14.379 20.1848 14.3925 19.8937 14.5471C19.3663 14.8272 18.8405 15.405 18.6502 15.9136C18.4765 16.3777 18.4735 16.6254 18.4735 30.2877C18.4735 43.1737 18.4846 44.2247 18.6258 44.6724C18.8112 45.2604 19.3107 45.8509 19.8289 46.0944C20.2041 46.2708 20.3897 46.2749 29.3501 46.3048C39.6062 46.339 38.7599 46.3918 39.5451 45.668C39.8121 45.4219 40.0072 45.136 40.1274 44.8147C40.3065 44.3361 40.3082 44.1986 40.3082 30.3587C40.3082 16.4509 40.3073 16.3835 40.1246 15.8954C39.8834 15.2505 39.3932 14.7353 38.7911 14.4939C38.3335 14.3105 38.1702 14.301 35.2933 14.2917C33.6335 14.2864 29.5595 14.3045 26.2399 14.332ZM43.2372 16.5384V17.5137L44.5464 17.5493C45.5927 17.5778 45.918 17.6175 46.1663 17.7472C46.9756 18.17 47.1615 18.5735 47.176 19.9384L47.187 20.9755L48.0302 21.0204C48.4939 21.045 48.9632 21.0939 49.0731 21.129C49.2723 21.1926 49.2728 21.1903 49.2713 20.184C49.2704 19.6291 49.2111 18.8984 49.1395 18.5603C48.8978 17.4194 48.1333 16.4821 46.9819 15.9151C46.3932 15.6252 46.3902 15.6247 44.8148 15.5939L43.2372 15.5631V16.5384ZM28.6399 17.4542C27.4355 17.6297 26.4696 18.0569 25.4384 18.8703C23.9612 20.0354 23.4432 21.0732 23.4444 22.8658C23.4449 23.6428 23.6694 24.9674 23.8865 25.4739C23.9848 25.7034 24.0653 25.919 24.0653 25.9531C24.0653 25.9872 23.8832 26.0689 23.6605 26.1346C22.9485 26.3449 22.8687 26.7007 23.3095 27.7003C23.5278 28.1951 24.1014 28.7449 24.5556 28.8949C24.7943 28.9736 24.8515 29.0457 24.8959 29.3235C24.9732 29.8063 25.4261 30.6633 25.8448 31.1187C26.0439 31.3353 26.4183 31.7722 26.6768 32.0895C27.775 33.4375 28.5895 33.9253 29.5953 33.837C30.3991 33.7666 30.9368 33.3894 31.9985 32.1515C33.5014 30.3991 33.5188 30.3747 33.7303 29.7045C33.9071 29.1441 33.9698 29.0486 34.2571 28.9016C34.6774 28.6867 35.2887 28.0671 35.4823 27.6597C35.5657 27.4843 35.6517 27.1558 35.6736 26.9296C35.7234 26.4135 35.5008 26.1426 35.027 26.1426C34.6661 26.1426 34.6476 26.065 34.8505 25.3963C35.0359 24.7849 35.0182 24.6566 34.7271 24.5062C34.3287 24.3001 33.4972 23.5014 33.2812 23.1172C33.1739 22.9261 33.0596 22.7698 33.0274 22.7698C32.9951 22.7698 32.8931 22.8534 32.8006 22.9556C32.5594 23.2221 32.3616 23.3099 31.9213 23.3458C31.4764 23.382 30.1416 23.8883 29.3213 24.332C28.6813 24.6781 28.399 24.7047 27.9929 24.4572C27.4502 24.1263 27.6741 23.5917 28.3102 23.6991C28.608 23.7494 28.785 23.6956 29.5907 23.3088C30.1049 23.0621 30.8594 22.7734 31.2674 22.6675C31.6754 22.5614 32.1291 22.3805 32.2755 22.2653C32.8477 21.8152 33.201 21.6015 33.2859 21.6539C33.3347 21.6841 33.5244 21.9575 33.7075 22.2615C34.1625 23.0168 34.5376 23.4746 34.8223 23.6219C35.1625 23.7978 35.2065 23.6807 35.1932 22.6367C35.1809 21.6687 34.9863 20.9231 34.5769 20.2745C34.3176 19.8638 33.7124 19.2574 33.3893 19.0845C33.2649 19.018 32.9719 18.7628 32.7382 18.5175C32.1696 17.9206 31.4217 17.5707 30.4568 17.4496C29.6131 17.3439 29.3938 17.3444 28.6399 17.4542ZM47.2314 22.0859C45.4441 22.5939 44.8048 24.9014 46.0565 26.327C46.9061 27.2948 48.6523 27.3769 49.6528 26.4962C51.4067 24.9523 50.4576 22.1654 48.1236 22.006C47.8526 21.9876 47.451 22.0235 47.2314 22.0859ZM49.9385 27.5857C49.8409 27.6411 49.4415 27.7977 49.0509 27.9339C48.6272 28.0816 48.3485 28.2267 48.3597 28.2937C48.3702 28.3555 48.4615 28.9851 48.5627 29.693C48.6639 30.4008 48.7638 31.0399 48.7846 31.1131C48.8055 31.1863 48.9058 31.8254 49.0074 32.5333C49.1091 33.2411 49.2881 34.3794 49.405 35.0629C50.1663 39.5134 50.0755 42.2974 49.0877 44.7729C48.5491 46.1231 47.766 47.0571 46.7351 47.5788C46.2241 47.8373 46.1725 47.8448 44.7239 47.8722L43.2372 47.9002V48.8804V49.8606L44.8571 49.8196C46.2046 49.7853 46.559 49.7477 46.9651 49.5961C48.5467 49.0058 49.8474 47.7922 50.6891 46.1219C51.0674 45.3712 51.5361 43.9248 51.7173 42.9489C51.9126 41.8977 51.988 39.0483 51.8548 37.7543C51.6866 36.1197 50.3034 27.6695 50.1849 27.5529C50.147 27.5156 50.0361 27.5304 49.9385 27.5857ZM25.2165 32.8587C24.4247 33.3153 23.4698 33.76 22.5994 34.0774C21.4936 34.4807 20.9116 34.9037 20.5975 35.5321C20.2566 36.2143 20.1759 36.7336 20.1098 38.6712C20.0521 40.3594 20.0565 40.4268 20.2449 40.7621C20.352 40.9526 20.5264 41.1634 20.6326 41.2304C20.7924 41.3312 22.2842 41.3545 29.288 41.3655C38.5707 41.38 38.0719 41.4076 38.4747 40.858C38.6372 40.6363 38.6497 40.4878 38.6353 38.9497C38.6171 37.0323 38.5768 36.6365 38.3426 36.0813C38.0217 35.3201 37.6246 35.3031 37.0091 36.0239C36.4452 36.6841 35.7815 37.5663 35.7815 37.6553C35.7815 37.6974 35.9028 37.8034 36.0511 37.891C36.6979 38.2731 36.988 39.1946 36.6176 39.6907C36.1799 40.2769 36.0962 40.2996 34.3769 40.2996C32.5454 40.2996 32.3715 40.2463 32.052 39.5863C31.7395 38.9407 31.9203 38.312 32.5244 37.9436C32.7584 37.801 32.973 37.7706 33.75 37.7704L34.6918 37.77L35.2895 36.8751C35.6183 36.3828 36.1858 35.6845 36.5506 35.3232C36.9154 34.962 37.1904 34.6284 37.1617 34.582C37.133 34.5356 36.8008 34.377 36.4233 34.2294C35.4362 33.8438 34.4975 33.4207 33.7873 33.0412C33.4472 32.8594 33.1477 32.7117 33.1216 32.7128C33.0956 32.714 32.9154 32.9975 32.721 33.3429C32.3429 34.0151 31.934 34.4338 31.4638 34.6302C31.1506 34.761 27.9268 34.8097 27.3383 34.6926C26.936 34.6123 26.2276 33.8739 25.8822 33.1746L25.6133 32.63L25.2165 32.8587ZM15.9439 37.5171C15.7486 37.6178 15.3991 37.8199 15.1673 37.9663L14.7457 38.2323V38.7902C14.7457 40.1863 15.2651 41.7019 16.0274 42.5303L16.4251 42.9624L16.4285 40.1443C16.4305 38.5944 16.4021 37.328 16.3655 37.3301C16.3289 37.3324 16.1392 37.4165 15.9439 37.5171ZM32.9219 38.8864C32.8478 39.0489 32.8447 39.1581 32.9112 39.2637C32.9906 39.3898 33.2061 39.4157 34.3495 39.4366L35.6944 39.4611L35.7964 39.2372C35.8811 39.0514 35.871 38.9832 35.7375 38.8355C35.5906 38.6732 35.4646 38.6576 34.3013 38.6576H33.0261L32.9219 38.8864ZM26.0716 49.1449C25.919 49.3628 26.0011 49.6008 26.2805 49.7504C26.3865 49.8072 27.5806 49.8412 29.4675 49.8412C32.7302 49.8412 32.7637 49.8363 32.7637 49.3645C32.7637 48.9578 32.729 48.9536 29.3782 48.9536C26.2303 48.9536 26.2046 48.9551 26.0716 49.1449Z" fill="black"/>
</svg>
