<svg width="60" height="61" viewBox="0 0 60 61" fill="none" xmlns="http://www.w3.org/2000/svg">
<rect y="0.5" width="60" height="60" rx="30" fill="#457EFF" fill-opacity="0.14"/>
<path fill-rule="evenodd" clip-rule="evenodd" d="M19.1641 12.2603C20.1768 11.6805 21.375 11.7144 22.3524 12.1912C27.138 14.5258 32.869 14.5282 37.6566 12.1977C38.645 11.7166 39.858 11.6886 40.8755 12.2861L48.3859 16.6971C49.0677 17.1087 49.4972 17.8629 49.4997 18.661L49.4997 18.6642C49.5033 31.5648 42.4147 43.7419 31.244 50.1679C30.4817 50.606 29.5184 50.6062 28.7561 50.1681C17.5499 43.7218 10.4549 31.4893 10.5 18.548C10.5025 17.7498 10.932 16.9957 11.6138 16.5841L11.6352 16.5712L19.1641 12.2603ZM27.1563 24.0937C27.1563 23.2104 27.1563 22.7687 27.3006 22.4203C27.493 21.9558 27.8621 21.5867 28.3266 21.3943C28.675 21.25 29.1167 21.25 30 21.25C30.8834 21.25 31.325 21.25 31.6734 21.3943C32.138 21.5867 32.507 21.9558 32.6995 22.4203C32.8438 22.7687 32.8438 23.2104 32.8438 24.0937V25.8986C32.8438 25.9415 32.8438 25.9629 32.8571 25.9762C32.8704 25.9896 32.8919 25.9896 32.9348 25.9896H34.7396C35.623 25.9896 36.0646 25.9896 36.413 26.1339C36.8776 26.3263 37.2466 26.6954 37.439 27.1599C37.5834 27.5083 37.5834 27.95 37.5834 28.8333C37.5834 29.7167 37.5834 30.1583 37.439 30.5067C37.2466 30.9713 36.8776 31.3403 36.413 31.5328C36.0646 31.6771 35.623 31.6771 34.7396 31.6771H32.9348C32.8919 31.6771 32.8704 31.6771 32.8571 31.6904C32.8438 31.7037 32.8438 31.7252 32.8438 31.7681V33.5729C32.8438 34.4563 32.8438 34.8979 32.6995 35.2463C32.507 35.7109 32.138 36.0799 31.6734 36.2723C31.325 36.4167 30.8834 36.4167 30 36.4167C29.1167 36.4167 28.675 36.4167 28.3266 36.2723C27.8621 36.0799 27.493 35.7109 27.3006 35.2463C27.1563 34.8979 27.1563 34.4563 27.1563 33.5729V31.7681C27.1563 31.7252 27.1563 31.7037 27.1429 31.6904C27.1296 31.6771 27.1082 31.6771 27.0653 31.6771H25.2604C24.3771 31.6771 23.9354 31.6771 23.587 31.5328C23.1225 31.3403 22.7534 30.9713 22.561 30.5067C22.4167 30.1583 22.4167 29.7167 22.4167 28.8333C22.4167 27.95 22.4167 27.5083 22.561 27.1599C22.7534 26.6954 23.1225 26.3263 23.587 26.1339C23.9354 25.9896 24.3771 25.9896 25.2604 25.9896H27.0653C27.1082 25.9896 27.1296 25.9896 27.1429 25.9762C27.1563 25.9629 27.1563 25.9415 27.1563 25.8986V24.0937Z" fill="#22202A"/>
</svg>
