<svg width="25" height="24" viewBox="0 0 25 24" fill="none" xmlns="http://www.w3.org/2000/svg">
<path d="M12.5001 2.34912C13.7799 2.34912 15.0073 2.85752 15.9122 3.76248C16.8172 4.66743 17.3256 5.89481 17.3256 7.17461C17.3256 8.45441 16.8172 9.6818 15.9122 10.5868C15.0073 11.4917 13.7799 12.0001 12.5001 12.0001C11.2203 12.0001 9.99292 11.4917 9.08797 10.5868C8.18301 9.6818 7.67461 8.45441 7.67461 7.17461C7.67461 5.89481 8.18301 4.66743 9.08797 3.76248C9.99292 2.85752 11.2203 2.34912 12.5001 2.34912ZM12.5001 14.4129C17.8323 14.4129 22.1511 16.5723 22.1511 19.2383V21.6511H2.84912V19.2383C2.84912 16.5723 7.16794 14.4129 12.5001 14.4129Z" fill="#457EFF"/>
</svg>
