<svg width="24" height="24" viewBox="0 0 24 24" fill="none" xmlns="http://www.w3.org/2000/svg">
<path d="M4.22027 10.9084C5.44627 10.9084 6.44305 9.92947 6.44305 8.72536C6.44305 7.52125 5.44627 6.54228 4.22027 6.54228C2.99427 6.54228 1.9975 7.52125 1.9975 8.72536C1.9975 9.92947 2.99427 10.9084 4.22027 10.9084ZM19.7797 10.9084C21.0057 10.9084 22.0025 9.92947 22.0025 8.72536C22.0025 7.52125 21.0057 6.54228 19.7797 6.54228C18.5537 6.54228 17.5569 7.52125 17.5569 8.72536C17.5569 9.92947 18.5537 10.9084 19.7797 10.9084ZM20.8911 12H18.6683C18.0571 12 17.5048 12.2422 17.102 12.6344C18.5016 13.3883 19.4949 14.7493 19.7103 16.3662H22.0025C22.6172 16.3662 23.1139 15.8784 23.1139 15.2746V14.1831C23.1139 12.979 22.1171 12 20.8911 12ZM12 12C14.1498 12 15.8899 10.291 15.8899 8.17959C15.8899 6.06814 14.1498 4.35919 12 4.35919C9.85015 4.35919 8.11013 6.06814 8.11013 8.17959C8.11013 10.291 9.85015 12 12 12ZM14.6673 13.0915H14.3791C13.6567 13.4326 12.8544 13.6373 12 13.6373C11.1456 13.6373 10.3468 13.4326 9.62093 13.0915H9.33266C7.12378 13.0915 5.33166 14.8516 5.33166 17.0211V18.0035C5.33166 18.9074 6.07838 19.6408 6.99874 19.6408H17.0012C17.9216 19.6408 18.6683 18.9074 18.6683 18.0035V17.0211C18.6683 14.8516 16.8762 13.0915 14.6673 13.0915ZM6.89803 12.6344C6.49515 12.2422 5.94293 12 5.33166 12H3.10889C1.88288 12 0.886108 12.979 0.886108 14.1831V15.2746C0.886108 15.8784 1.38276 16.3662 1.9975 16.3662H4.28626C4.50507 14.7493 5.49837 13.3883 6.89803 12.6344Z" fill="#457EFF"/>
</svg>
