<svg width="24" height="24" viewBox="0 0 24 24" fill="none" xmlns="http://www.w3.org/2000/svg">
<path d="M21.2644 12.3078L12.7056 2.79805C12.3452 2.39674 11.6529 2.39674 11.2924 2.79805L2.73364 12.3078C2.61045 12.4444 2.52959 12.6138 2.50089 12.7954C2.47219 12.9771 2.49688 13.1632 2.57198 13.3311C2.72413 13.6744 3.06458 13.895 3.44022 13.895H5.34217V20.5518C5.34217 20.8041 5.44236 21.0459 5.62071 21.2243C5.79905 21.4026 6.04093 21.5028 6.29315 21.5028H9.14608C9.39829 21.5028 9.64018 21.4026 9.81852 21.2243C9.99686 21.0459 10.0971 20.8041 10.0971 20.5518V16.7479H13.901V20.5518C13.901 20.8041 14.0012 21.0459 14.1795 21.2243C14.3578 21.4026 14.5997 21.5028 14.8519 21.5028H17.7049C17.9571 21.5028 18.199 21.4026 18.3773 21.2243C18.5557 21.0459 18.6558 20.8041 18.6558 20.5518V13.895H20.5578C20.742 13.8958 20.9224 13.843 21.0771 13.743C21.2317 13.643 21.354 13.5002 21.4289 13.3319C21.5038 13.1637 21.5281 12.9773 21.4989 12.7954C21.4697 12.6136 21.3882 12.4442 21.2644 12.3078Z" fill="#457EFF"/>
</svg>
