<svg width="24" height="24" viewBox="0 0 24 24" fill="none" xmlns="http://www.w3.org/2000/svg">
<path d="M21.6006 12.6658L15.0177 19.2487C14.43 19.8365 13.4112 19.4251 13.4112 18.5826V14.821H8.08217C7.56102 14.821 7.14175 14.4017 7.14175 13.8805V10.1189C7.14175 9.59775 7.56102 9.17848 8.08217 9.17848H13.4112V5.41683C13.4112 4.5783 14.426 4.16295 15.0177 4.75071L21.6006 11.3336C21.965 11.7019 21.965 12.2975 21.6006 12.6658ZM9.64952 19.0528V17.4855C9.64952 17.2268 9.43793 17.0153 9.17931 17.0153H5.88787C5.19432 17.0153 4.63399 16.4549 4.63399 15.7614V8.23807C4.63399 7.54452 5.19432 6.98419 5.88787 6.98419H9.17931C9.43793 6.98419 9.64952 6.77259 9.64952 6.51398V4.94663C9.64952 4.68801 9.43793 4.47642 9.17931 4.47642H5.88787C3.81113 4.47642 2.12622 6.16133 2.12622 8.23807V15.7614C2.12622 17.8381 3.81113 19.523 5.88787 19.523H9.17931C9.43793 19.523 9.64952 19.3114 9.64952 19.0528Z" fill="#457EFF"/>
</svg>
