<svg width="24" height="24" viewBox="0 0 24 24" fill="none" xmlns="http://www.w3.org/2000/svg">
<path d="M4.22027 10.9086C5.44627 10.9086 6.44305 9.92965 6.44305 8.72554C6.44305 7.52144 5.44627 6.54246 4.22027 6.54246C2.99427 6.54246 1.9975 7.52144 1.9975 8.72554C1.9975 9.92965 2.99427 10.9086 4.22027 10.9086ZM19.7797 10.9086C21.0057 10.9086 22.0025 9.92965 22.0025 8.72554C22.0025 7.52144 21.0057 6.54246 19.7797 6.54246C18.5537 6.54246 17.5569 7.52144 17.5569 8.72554C17.5569 9.92965 18.5537 10.9086 19.7797 10.9086ZM20.8911 12.0002H18.6683C18.0571 12.0002 17.5048 12.2424 17.102 12.6346C18.5016 13.3885 19.4949 14.7495 19.7103 16.3663H22.0025C22.6172 16.3663 23.1139 15.8786 23.1139 15.2748V14.1833C23.1139 12.9791 22.1171 12.0002 20.8911 12.0002ZM12 12.0002C14.1498 12.0002 15.8899 10.2912 15.8899 8.17977C15.8899 6.06832 14.1498 4.35938 12 4.35938C9.85015 4.35938 8.11013 6.06832 8.11013 8.17977C8.11013 10.2912 9.85015 12.0002 12 12.0002ZM14.6673 13.0917H14.3791C13.6567 13.4328 12.8544 13.6375 12 13.6375C11.1456 13.6375 10.3468 13.4328 9.62093 13.0917H9.33266C7.12378 13.0917 5.33166 14.8518 5.33166 17.0213V18.0037C5.33166 18.9076 6.07838 19.641 6.99874 19.641H17.0012C17.9216 19.641 18.6683 18.9076 18.6683 18.0037V17.0213C18.6683 14.8518 16.8762 13.0917 14.6673 13.0917ZM6.89803 12.6346C6.49515 12.2424 5.94293 12.0002 5.33166 12.0002H3.10889C1.88288 12.0002 0.886108 12.9791 0.886108 14.1833V15.2748C0.886108 15.8786 1.38276 16.3663 1.9975 16.3663H4.28626C4.50507 14.7495 5.49837 13.3885 6.89803 12.6346Z" fill="#457EFF"/>
</svg>
