<svg width="25" height="24" viewBox="0 0 25 24" fill="none" xmlns="http://www.w3.org/2000/svg">
<path d="M21.7643 12.3079L13.2055 2.79812C12.8451 2.3968 12.1528 2.3968 11.7923 2.79812L3.23355 12.3079C3.11036 12.4444 3.0295 12.6138 3.00079 12.7955C2.97209 12.9772 2.99679 13.1632 3.07189 13.3311C3.22404 13.6744 3.56449 13.8951 3.94013 13.8951H5.84208V20.5519C5.84208 20.8041 5.94227 21.046 6.12062 21.2243C6.29896 21.4027 6.54084 21.5029 6.79306 21.5029H9.64599C9.8982 21.5029 10.1401 21.4027 10.3184 21.2243C10.4968 21.046 10.597 20.8041 10.597 20.5519V16.748H14.4009V20.5519C14.4009 20.8041 14.5011 21.046 14.6794 21.2243C14.8577 21.4027 15.0996 21.5029 15.3518 21.5029H18.2048C18.457 21.5029 18.6989 21.4027 18.8772 21.2243C19.0556 21.046 19.1558 20.8041 19.1558 20.5519V13.8951H21.0577C21.2419 13.8958 21.4223 13.843 21.577 13.743C21.7316 13.6431 21.8539 13.5002 21.9288 13.332C22.0037 13.1637 22.028 12.9773 21.9988 12.7955C21.9696 12.6136 21.8881 12.4442 21.7643 12.3079Z" fill="#457EFF"/>
</svg>
