<svg width="24" height="24" viewBox="0 0 24 24" fill="none" xmlns="http://www.w3.org/2000/svg">
<path d="M4.22027 10.9084C5.44627 10.9084 6.44305 9.92941 6.44305 8.7253C6.44305 7.52119 5.44627 6.54222 4.22027 6.54222C2.99427 6.54222 1.9975 7.52119 1.9975 8.7253C1.9975 9.92941 2.99427 10.9084 4.22027 10.9084ZM19.7797 10.9084C21.0057 10.9084 22.0025 9.92941 22.0025 8.7253C22.0025 7.52119 21.0057 6.54222 19.7797 6.54222C18.5537 6.54222 17.5569 7.52119 17.5569 8.7253C17.5569 9.92941 18.5537 10.9084 19.7797 10.9084ZM20.8911 11.9999H18.6683C18.0571 11.9999 17.5048 12.2421 17.102 12.6344C18.5016 13.3882 19.4949 14.7492 19.7103 16.3661H22.0025C22.6172 16.3661 23.1139 15.8783 23.1139 15.2746V14.183C23.1139 12.9789 22.1171 11.9999 20.8911 11.9999ZM12 11.9999C14.1498 11.9999 15.8899 10.291 15.8899 8.17953C15.8899 6.06808 14.1498 4.35913 12 4.35913C9.85015 4.35913 8.11013 6.06808 8.11013 8.17953C8.11013 10.291 9.85015 11.9999 12 11.9999ZM14.6673 13.0915H14.3791C13.6567 13.4326 12.8544 13.6372 12 13.6372C11.1456 13.6372 10.3468 13.4326 9.62093 13.0915H9.33266C7.12378 13.0915 5.33166 14.8516 5.33166 17.021V18.0034C5.33166 18.9073 6.07838 19.6407 6.99874 19.6407H17.0012C17.9216 19.6407 18.6683 18.9073 18.6683 18.0034V17.021C18.6683 14.8516 16.8762 13.0915 14.6673 13.0915ZM6.89803 12.6344C6.49515 12.2421 5.94293 11.9999 5.33166 11.9999H3.10889C1.88288 11.9999 0.886108 12.9789 0.886108 14.183V15.2746C0.886108 15.8783 1.38276 16.3661 1.9975 16.3661H4.28626C4.50507 14.7492 5.49837 13.3882 6.89803 12.6344Z" fill="#457EFF"/>
</svg>
