<svg width="24" height="24" viewBox="0 0 24 24" fill="none" xmlns="http://www.w3.org/2000/svg">
<path d="M4.2204 10.9086C5.4464 10.9086 6.44317 9.92965 6.44317 8.72554C6.44317 7.52144 5.4464 6.54246 4.2204 6.54246C2.9944 6.54246 1.99762 7.52144 1.99762 8.72554C1.99762 9.92965 2.9944 10.9086 4.2204 10.9086ZM19.7798 10.9086C21.0058 10.9086 22.0026 9.92965 22.0026 8.72554C22.0026 7.52144 21.0058 6.54246 19.7798 6.54246C18.5538 6.54246 17.5571 7.52144 17.5571 8.72554C17.5571 9.92965 18.5538 10.9086 19.7798 10.9086ZM20.8912 12.0002H18.6684C18.0572 12.0002 17.505 12.2424 17.1021 12.6346C18.5017 13.3885 19.495 14.7495 19.7104 16.3663H22.0026C22.6173 16.3663 23.114 15.8786 23.114 15.2748V14.1833C23.114 12.9791 22.1172 12.0002 20.8912 12.0002ZM12.0001 12.0002C14.15 12.0002 15.89 10.2912 15.89 8.17977C15.89 6.06832 14.15 4.35938 12.0001 4.35938C9.85027 4.35938 8.11026 6.06832 8.11026 8.17977C8.11026 10.2912 9.85027 12.0002 12.0001 12.0002ZM14.6674 13.0917H14.3792C13.6568 13.4328 12.8545 13.6375 12.0001 13.6375C11.1457 13.6375 10.3469 13.4328 9.62105 13.0917H9.33278C7.1239 13.0917 5.33178 14.8518 5.33178 17.0213V18.0037C5.33178 18.9076 6.0785 19.641 6.99887 19.641H17.0014C17.9217 19.641 18.6684 18.9076 18.6684 18.0037V17.0213C18.6684 14.8518 16.8763 13.0917 14.6674 13.0917ZM6.89815 12.6346C6.49527 12.2424 5.94305 12.0002 5.33178 12.0002H3.10901C1.88301 12.0002 0.88623 12.9791 0.88623 14.1833V15.2748C0.88623 15.8786 1.38288 16.3663 1.99762 16.3663H4.28638C4.50519 14.7495 5.49849 13.3885 6.89815 12.6346Z" fill="#457EFF"/>
</svg>
