<svg width="25" height="24" viewBox="0 0 25 24" fill="none" xmlns="http://www.w3.org/2000/svg">
<path d="M9.51235 19.9672C9.51235 21.0627 8.61607 21.959 7.52061 21.959C6.42514 21.959 5.53882 21.0627 5.53882 19.9672C5.53882 18.8718 6.42514 17.9755 7.52061 17.9755C8.61607 17.9755 9.51235 18.8718 9.51235 19.9672ZM17.4793 17.9755C16.3839 17.9755 15.4976 18.8718 15.4976 19.9672C15.4976 21.0627 16.3839 21.959 17.4793 21.959C18.5748 21.959 19.4711 21.0627 19.4711 19.9672C19.4711 18.8718 18.5748 17.9755 17.4793 17.9755ZM17.8737 12.9961C18.3268 12.996 18.7663 12.8415 19.1197 12.558C19.4732 12.2744 19.7193 11.8789 19.8177 11.4366L21.3025 5.65347C21.3838 5.33714 21.1448 5.02913 20.8182 5.02913H8.02061C7.74446 5.02913 7.52061 4.80527 7.52061 4.52913V4.03325C7.52061 3.50501 7.31076 2.9984 6.93724 2.62487C6.56371 2.25135 6.0571 2.0415 5.52886 2.0415H4.03711C3.76097 2.0415 3.53711 2.26536 3.53711 2.5415V3.53325C3.53711 3.80939 3.76097 4.03325 4.03711 4.03325H5.02886C5.305 4.03325 5.52886 4.25711 5.52886 4.53325V14.9879C5.52886 15.5161 5.7387 16.0227 6.11223 16.3962C6.48575 16.7698 6.99236 16.9796 7.52061 16.9796H18.9711C19.2472 16.9796 19.4773 16.7523 19.4087 16.4848C19.3207 16.142 19.1422 15.8257 18.8877 15.5712C18.5142 15.1977 18.0076 14.9879 17.4793 14.9879H8.02061C7.74446 14.9879 7.52061 14.764 7.52061 14.4879V13.4961C7.52061 13.22 7.74446 12.9961 8.02061 12.9961H17.8737Z" fill="#457EFF"/>
</svg>
