<svg width="24" height="24" viewBox="0 0 24 24" fill="none" xmlns="http://www.w3.org/2000/svg">
<path d="M9.01235 19.9672C9.01235 21.0627 8.11607 21.959 7.02061 21.959C5.92514 21.959 5.03882 21.0627 5.03882 19.9672C5.03882 18.8718 5.92514 17.9755 7.02061 17.9755C8.11607 17.9755 9.01235 18.8718 9.01235 19.9672ZM16.9793 17.9755C15.8839 17.9755 14.9976 18.8718 14.9976 19.9672C14.9976 21.0627 15.8839 21.959 16.9793 21.959C18.0748 21.959 18.9711 21.0627 18.9711 19.9672C18.9711 18.8718 18.0748 17.9755 16.9793 17.9755ZM17.3737 12.9961C17.8268 12.996 18.2663 12.8415 18.6197 12.558C18.9732 12.2744 19.2193 11.8789 19.3177 11.4366L20.8025 5.65347C20.8838 5.33714 20.6448 5.02913 20.3182 5.02913H7.52061C7.24446 5.02913 7.02061 4.80527 7.02061 4.52913V4.03325C7.02061 3.50501 6.81076 2.9984 6.43724 2.62487C6.06371 2.25135 5.5571 2.0415 5.02886 2.0415H3.53711C3.26097 2.0415 3.03711 2.26536 3.03711 2.5415V3.53325C3.03711 3.80939 3.26097 4.03325 3.53711 4.03325H4.52886C4.805 4.03325 5.02886 4.25711 5.02886 4.53325V14.9879C5.02886 15.5161 5.2387 16.0227 5.61223 16.3962C5.98575 16.7698 6.49236 16.9796 7.02061 16.9796H18.4711C18.7472 16.9796 18.9773 16.7523 18.9087 16.4848C18.8207 16.142 18.6422 15.8257 18.3877 15.5712C18.0142 15.1977 17.5076 14.9879 16.9793 14.9879H7.52061C7.24446 14.9879 7.02061 14.764 7.02061 14.4879V13.4961C7.02061 13.22 7.24446 12.9961 7.52061 12.9961H17.3737Z" fill="#457EFF"/>
</svg>
