<svg width="25" height="24" viewBox="0 0 25 24" fill="none" xmlns="http://www.w3.org/2000/svg">
<path d="M22.1006 12.6657L15.5177 19.2486C14.93 19.8364 13.9112 19.4249 13.9112 18.5825V14.8208H8.58217C8.06102 14.8208 7.64175 14.4016 7.64175 13.8804V10.1188C7.64175 9.59763 8.06102 9.17836 8.58217 9.17836H13.9112V5.41671C13.9112 4.57818 14.926 4.16283 15.5177 4.75058L22.1006 11.3335C22.465 11.7018 22.465 12.2974 22.1006 12.6657ZM10.1495 19.0527V17.4853C10.1495 17.2267 9.93793 17.0151 9.67931 17.0151H6.38787C5.69432 17.0151 5.13399 16.4548 5.13399 15.7612V8.23795C5.13399 7.54439 5.69432 6.98406 6.38787 6.98406H9.67931C9.93793 6.98406 10.1495 6.77247 10.1495 6.51386V4.9465C10.1495 4.68789 9.93793 4.4763 9.67931 4.4763H6.38787C4.31113 4.4763 2.62622 6.1612 2.62622 8.23795V15.7612C2.62622 17.838 4.31113 19.5229 6.38787 19.5229H9.67931C9.93793 19.5229 10.1495 19.3113 10.1495 19.0527Z" fill="#457EFF"/>
</svg>
