<svg width="24" height="24" viewBox="0 0 24 24" fill="none" xmlns="http://www.w3.org/2000/svg">
<path d="M21.6006 12.6658L15.0177 19.2487C14.4299 19.8365 13.4111 19.4251 13.4111 18.5826V14.821H8.08214C7.56099 14.821 7.14172 14.4017 7.14172 13.8805V10.1189C7.14172 9.59775 7.56099 9.17848 8.08214 9.17848H13.4111V5.41683C13.4111 4.5783 14.426 4.16295 15.0177 4.75071L21.6006 11.3336C21.965 11.7019 21.965 12.2975 21.6006 12.6658ZM9.64949 19.0528V17.4855C9.64949 17.2268 9.4379 17.0153 9.17928 17.0153H5.88784C5.19429 17.0153 4.63396 16.4549 4.63396 15.7614V8.23807C4.63396 7.54452 5.19429 6.98419 5.88784 6.98419H9.17928C9.4379 6.98419 9.64949 6.77259 9.64949 6.51398V4.94663C9.64949 4.68801 9.4379 4.47642 9.17928 4.47642H5.88784C3.8111 4.47642 2.12619 6.16133 2.12619 8.23807V15.7614C2.12619 17.8381 3.8111 19.523 5.88784 19.523H9.17928C9.4379 19.523 9.64949 19.3114 9.64949 19.0528Z" fill="#457EFF"/>
</svg>
