<svg width="25" height="24" viewBox="0 0 25 24" fill="none" xmlns="http://www.w3.org/2000/svg">
<path fill-rule="evenodd" clip-rule="evenodd" d="M19.0688 3.20142C19.8154 3.20142 20.5315 3.49802 21.0594 4.02597C21.5874 4.55392 21.884 5.26997 21.884 6.01661V15.4006C21.884 16.1472 21.5874 16.8633 21.0594 17.3912C20.5315 17.9192 19.8154 18.2158 19.0688 18.2158H8.1205L4.99282 20.5618C4.21958 21.1417 3.11603 20.5899 3.11603 19.6234V6.01661C3.11603 5.26997 3.41263 4.55392 3.94058 4.02597C4.46853 3.49802 5.18458 3.20142 5.93122 3.20142H19.0688ZM11.5616 11.647H8.74641C8.49753 11.647 8.25885 11.7459 8.08286 11.9218C7.90688 12.0978 7.80801 12.3365 7.80801 12.5854C7.80801 12.8343 7.90688 13.073 8.08286 13.2489C8.25885 13.4249 8.49753 13.5238 8.74641 13.5238H11.5616C11.8105 13.5238 12.0492 13.4249 12.2252 13.2489C12.4011 13.073 12.5 12.8343 12.5 12.5854C12.5 12.3365 12.4011 12.0978 12.2252 11.9218C12.0492 11.7459 11.8105 11.647 11.5616 11.647ZM16.2536 7.8934H8.74641C8.50723 7.89367 8.27718 7.98525 8.10326 8.14944C7.92934 8.31363 7.82468 8.53804 7.81067 8.7768C7.79665 9.01557 7.87433 9.25068 8.02785 9.43409C8.18136 9.61751 8.39911 9.73538 8.63662 9.76363L8.74641 9.7702H16.2536C16.4928 9.76993 16.7228 9.67835 16.8967 9.51416C17.0707 9.34997 17.1753 9.12556 17.1893 8.88679C17.2033 8.64803 17.1257 8.41292 16.9722 8.22951C16.8186 8.04609 16.6009 7.92822 16.3634 7.89997L16.2536 7.8934Z" fill="#457EFF"/>
</svg>
