<svg width="24" height="24" viewBox="0 0 24 24" fill="none" xmlns="http://www.w3.org/2000/svg">
<path d="M21.2643 12.3078L12.7055 2.79805C12.3451 2.39674 11.6528 2.39674 11.2923 2.79805L2.73355 12.3078C2.61036 12.4444 2.5295 12.6138 2.50079 12.7954C2.47209 12.9771 2.49679 13.1632 2.57189 13.3311C2.72404 13.6744 3.06449 13.895 3.44013 13.895H5.34208V20.5518C5.34208 20.8041 5.44227 21.0459 5.62062 21.2243C5.79896 21.4026 6.04084 21.5028 6.29306 21.5028H9.14599C9.3982 21.5028 9.64009 21.4026 9.81843 21.2243C9.99677 21.0459 10.097 20.8041 10.097 20.5518V16.7479H13.9009V20.5518C13.9009 20.8041 14.0011 21.0459 14.1794 21.2243C14.3577 21.4026 14.5996 21.5028 14.8518 21.5028H17.7048C17.957 21.5028 18.1989 21.4026 18.3772 21.2243C18.5556 21.0459 18.6558 20.8041 18.6558 20.5518V13.895H20.5577C20.7419 13.8958 20.9223 13.843 21.077 13.743C21.2316 13.643 21.3539 13.5002 21.4288 13.3319C21.5037 13.1637 21.528 12.9773 21.4988 12.7954C21.4696 12.6136 21.3881 12.4442 21.2643 12.3078Z" fill="#457EFF"/>
</svg>
