<svg width="25" height="24" viewBox="0 0 25 24" fill="none" xmlns="http://www.w3.org/2000/svg">
<path d="M22.1006 12.6656L15.5177 19.2485C14.93 19.8362 13.9112 19.4248 13.9112 18.5824V14.8207H8.58217C8.06102 14.8207 7.64175 14.4014 7.64175 13.8803V10.1187C7.64175 9.59751 8.06102 9.17824 8.58217 9.17824H13.9112V5.41659C13.9112 4.57805 14.926 4.1627 15.5177 4.75046L22.1006 11.3334C22.465 11.7017 22.465 12.2973 22.1006 12.6656ZM10.1495 19.0526V17.4852C10.1495 17.2266 9.93793 17.015 9.67931 17.015H6.38787C5.69432 17.015 5.13399 16.4547 5.13399 15.7611V8.23783C5.13399 7.54427 5.69432 6.98394 6.38787 6.98394H9.67931C9.93793 6.98394 10.1495 6.77235 10.1495 6.51374V4.94638C10.1495 4.68777 9.93793 4.47618 9.67931 4.47618H6.38787C4.31113 4.47618 2.62622 6.16108 2.62622 8.23783V15.7611C2.62622 17.8379 4.31113 19.5228 6.38787 19.5228H9.67931C9.93793 19.5228 10.1495 19.3112 10.1495 19.0526Z" fill="#457EFF"/>
</svg>
