<svg width="24" height="24" viewBox="0 0 24 24" fill="none" xmlns="http://www.w3.org/2000/svg">
<path d="M9.01238 19.9672C9.01238 21.0627 8.1161 21.959 7.02064 21.959C5.92517 21.959 5.03885 21.0627 5.03885 19.9672C5.03885 18.8718 5.92517 17.9755 7.02064 17.9755C8.1161 17.9755 9.01238 18.8718 9.01238 19.9672ZM16.9794 17.9755C15.8839 17.9755 14.9976 18.8718 14.9976 19.9672C14.9976 21.0627 15.8839 21.959 16.9794 21.959C18.0748 21.959 18.9711 21.0627 18.9711 19.9672C18.9711 18.8718 18.0748 17.9755 16.9794 17.9755ZM17.3737 12.9961C17.8268 12.996 18.2664 12.8415 18.6198 12.558C18.9732 12.2744 19.2194 11.8789 19.3177 11.4366L20.8026 5.65347C20.8838 5.33714 20.6449 5.02913 20.3183 5.02913H7.52064C7.24449 5.02913 7.02064 4.80527 7.02064 4.52913V4.03325C7.02064 3.50501 6.81079 2.9984 6.43727 2.62487C6.06374 2.25135 5.55713 2.0415 5.02889 2.0415H3.53714C3.261 2.0415 3.03714 2.26536 3.03714 2.5415V3.53325C3.03714 3.80939 3.261 4.03325 3.53714 4.03325H4.52889C4.80503 4.03325 5.02889 4.25711 5.02889 4.53325V14.9879C5.02889 15.5161 5.23873 16.0227 5.61226 16.3962C5.98578 16.7698 6.49239 16.9796 7.02064 16.9796H18.4711C18.7473 16.9796 18.9773 16.7523 18.9087 16.4848C18.8208 16.142 18.6423 15.8257 18.3878 15.5712C18.0142 15.1977 17.5076 14.9879 16.9794 14.9879H7.52064C7.24449 14.9879 7.02064 14.764 7.02064 14.4879V13.4961C7.02064 13.22 7.24449 12.9961 7.52064 12.9961H17.3737Z" fill="#457EFF"/>
</svg>
