<svg width="24" height="24" viewBox="0 0 24 24" fill="none" xmlns="http://www.w3.org/2000/svg">
<path d="M12 2.349C13.2798 2.349 14.5072 2.8574 15.4121 3.76235C16.3171 4.66731 16.8255 5.89469 16.8255 7.17449C16.8255 8.45429 16.3171 9.68168 15.4121 10.5866C14.5072 11.4916 13.2798 12 12 12C10.7202 12 9.49282 11.4916 8.58786 10.5866C7.68291 9.68168 7.17451 8.45429 7.17451 7.17449C7.17451 5.89469 7.68291 4.66731 8.58786 3.76235C9.49282 2.8574 10.7202 2.349 12 2.349ZM12 14.4127C17.3322 14.4127 21.651 16.5721 21.651 19.2382V21.651H2.34901V19.2382C2.34901 16.5721 6.66783 14.4127 12 14.4127Z" fill="#457EFF"/>
</svg>
