<svg width="25" height="24" viewBox="0 0 25 24" fill="none" xmlns="http://www.w3.org/2000/svg">
<path d="M22.1006 12.6658L15.5177 19.2487C14.93 19.8365 13.9112 19.4251 13.9112 18.5826V14.821H8.58217C8.06102 14.821 7.64175 14.4017 7.64175 13.8805V10.1189C7.64175 9.59775 8.06102 9.17848 8.58217 9.17848H13.9112V5.41683C13.9112 4.5783 14.926 4.16295 15.5177 4.75071L22.1006 11.3336C22.465 11.7019 22.465 12.2975 22.1006 12.6658ZM10.1495 19.0528V17.4855C10.1495 17.2268 9.93793 17.0153 9.67931 17.0153H6.38787C5.69432 17.0153 5.13399 16.4549 5.13399 15.7614V8.23807C5.13399 7.54452 5.69432 6.98419 6.38787 6.98419H9.67931C9.93793 6.98419 10.1495 6.77259 10.1495 6.51398V4.94663C10.1495 4.68801 9.93793 4.47642 9.67931 4.47642H6.38787C4.31113 4.47642 2.62622 6.16133 2.62622 8.23807V15.7614C2.62622 17.8381 4.31113 19.523 6.38787 19.523H9.67931C9.93793 19.523 10.1495 19.3114 10.1495 19.0528Z" fill="#457EFF"/>
</svg>
