<svg width="25" height="24" viewBox="0 0 25 24" fill="none" xmlns="http://www.w3.org/2000/svg">
<path d="M4.72027 10.9084C5.94627 10.9084 6.94305 9.92941 6.94305 8.7253C6.94305 7.52119 5.94627 6.54222 4.72027 6.54222C3.49427 6.54222 2.4975 7.52119 2.4975 8.7253C2.4975 9.92941 3.49427 10.9084 4.72027 10.9084ZM20.2797 10.9084C21.5057 10.9084 22.5025 9.92941 22.5025 8.7253C22.5025 7.52119 21.5057 6.54222 20.2797 6.54222C19.0537 6.54222 18.0569 7.52119 18.0569 8.7253C18.0569 9.92941 19.0537 10.9084 20.2797 10.9084ZM21.3911 11.9999H19.1683C18.5571 11.9999 18.0048 12.2421 17.602 12.6344C19.0016 13.3882 19.9949 14.7492 20.2103 16.3661H22.5025C23.1172 16.3661 23.6139 15.8783 23.6139 15.2746V14.183C23.6139 12.9789 22.6171 11.9999 21.3911 11.9999ZM12.5 11.9999C14.6498 11.9999 16.3899 10.291 16.3899 8.17953C16.3899 6.06808 14.6498 4.35913 12.5 4.35913C10.3502 4.35913 8.61013 6.06808 8.61013 8.17953C8.61013 10.291 10.3502 11.9999 12.5 11.9999ZM15.1673 13.0915H14.8791C14.1567 13.4326 13.3544 13.6372 12.5 13.6372C11.6456 13.6372 10.8468 13.4326 10.1209 13.0915H9.83266C7.62378 13.0915 5.83166 14.8516 5.83166 17.021V18.0034C5.83166 18.9073 6.57838 19.6407 7.49874 19.6407H17.5012C18.4216 19.6407 19.1683 18.9073 19.1683 18.0034V17.021C19.1683 14.8516 17.3762 13.0915 15.1673 13.0915ZM7.39803 12.6344C6.99515 12.2421 6.44293 11.9999 5.83166 11.9999H3.60889C2.38288 11.9999 1.38611 12.9789 1.38611 14.183V15.2746C1.38611 15.8783 1.88276 16.3661 2.4975 16.3661H4.78626C5.00507 14.7492 5.99837 13.3882 7.39803 12.6344Z" fill="#457EFF"/>
</svg>
