<svg width="25" height="24" viewBox="0 0 25 24" fill="none" xmlns="http://www.w3.org/2000/svg">
<path d="M9.51238 19.9672C9.51238 21.0627 8.6161 21.959 7.52064 21.959C6.42517 21.959 5.53885 21.0627 5.53885 19.9672C5.53885 18.8718 6.42517 17.9755 7.52064 17.9755C8.6161 17.9755 9.51238 18.8718 9.51238 19.9672ZM17.4794 17.9755C16.3839 17.9755 15.4976 18.8718 15.4976 19.9672C15.4976 21.0627 16.3839 21.959 17.4794 21.959C18.5748 21.959 19.4711 21.0627 19.4711 19.9672C19.4711 18.8718 18.5748 17.9755 17.4794 17.9755ZM17.8737 12.9961C18.3268 12.996 18.7664 12.8415 19.1198 12.558C19.4732 12.2744 19.7194 11.8789 19.8177 11.4366L21.3026 5.65347C21.3838 5.33714 21.1449 5.02913 20.8183 5.02913H8.02064C7.74449 5.02913 7.52064 4.80527 7.52064 4.52913V4.03325C7.52064 3.50501 7.31079 2.9984 6.93727 2.62487C6.56374 2.25135 6.05713 2.0415 5.52889 2.0415H4.03714C3.761 2.0415 3.53714 2.26536 3.53714 2.5415V3.53325C3.53714 3.80939 3.761 4.03325 4.03714 4.03325H5.02889C5.30503 4.03325 5.52889 4.25711 5.52889 4.53325V14.9879C5.52889 15.5161 5.73873 16.0227 6.11226 16.3962C6.48578 16.7698 6.99239 16.9796 7.52064 16.9796H18.9711C19.2473 16.9796 19.4773 16.7523 19.4087 16.4848C19.3208 16.142 19.1423 15.8257 18.8878 15.5712C18.5142 15.1977 18.0076 14.9879 17.4794 14.9879H8.02064C7.74449 14.9879 7.52064 14.764 7.52064 14.4879V13.4961C7.52064 13.22 7.74449 12.9961 8.02064 12.9961H17.8737Z" fill="#457EFF"/>
</svg>
