<svg width="25" height="24" viewBox="0 0 25 24" fill="none" xmlns="http://www.w3.org/2000/svg">
<path fill-rule="evenodd" clip-rule="evenodd" d="M19.0688 3.20148C19.8154 3.20148 20.5315 3.49808 21.0594 4.02603C21.5874 4.55398 21.884 5.27003 21.884 6.01667V15.4006C21.884 16.1473 21.5874 16.8633 21.0594 17.3913C20.5315 17.9192 19.8154 18.2158 19.0688 18.2158H8.1205L4.99282 20.5618C4.21958 21.1418 3.11603 20.59 3.11603 19.6234V6.01667C3.11603 5.27003 3.41263 4.55398 3.94058 4.02603C4.46853 3.49808 5.18458 3.20148 5.93122 3.20148H19.0688ZM11.5616 11.6471H8.74641C8.49753 11.6471 8.25885 11.7459 8.08286 11.9219C7.90688 12.0979 7.80801 12.3366 7.80801 12.5855C7.80801 12.8343 7.90688 13.073 8.08286 13.249C8.25885 13.425 8.49753 13.5238 8.74641 13.5238H11.5616C11.8105 13.5238 12.0492 13.425 12.2252 13.249C12.4011 13.073 12.5 12.8343 12.5 12.5855C12.5 12.3366 12.4011 12.0979 12.2252 11.9219C12.0492 11.7459 11.8105 11.6471 11.5616 11.6471ZM16.2536 7.89346H8.74641C8.50723 7.89373 8.27718 7.98531 8.10326 8.1495C7.92934 8.31369 7.82468 8.5381 7.81067 8.77687C7.79665 9.01563 7.87433 9.25074 8.02785 9.43415C8.18136 9.61757 8.39911 9.73544 8.63662 9.76369L8.74641 9.77026H16.2536C16.4928 9.76999 16.7228 9.67841 16.8967 9.51422C17.0707 9.35003 17.1753 9.12562 17.1893 8.88686C17.2033 8.64809 17.1257 8.41298 16.9722 8.22957C16.8186 8.04615 16.6009 7.92828 16.3634 7.90003L16.2536 7.89346Z" fill="#457EFF"/>
</svg>
