<svg width="24" height="24" viewBox="0 0 24 24" fill="none" xmlns="http://www.w3.org/2000/svg">
<path d="M4.2204 10.9084C5.4464 10.9084 6.44317 9.92941 6.44317 8.7253C6.44317 7.52119 5.4464 6.54222 4.2204 6.54222C2.9944 6.54222 1.99762 7.52119 1.99762 8.7253C1.99762 9.92941 2.9944 10.9084 4.2204 10.9084ZM19.7798 10.9084C21.0058 10.9084 22.0026 9.92941 22.0026 8.7253C22.0026 7.52119 21.0058 6.54222 19.7798 6.54222C18.5538 6.54222 17.5571 7.52119 17.5571 8.7253C17.5571 9.92941 18.5538 10.9084 19.7798 10.9084ZM20.8912 11.9999H18.6684C18.0572 11.9999 17.505 12.2421 17.1021 12.6344C18.5017 13.3882 19.495 14.7492 19.7104 16.3661H22.0026C22.6173 16.3661 23.114 15.8783 23.114 15.2746V14.183C23.114 12.9789 22.1172 11.9999 20.8912 11.9999ZM12.0001 11.9999C14.15 11.9999 15.89 10.291 15.89 8.17953C15.89 6.06808 14.15 4.35913 12.0001 4.35913C9.85027 4.35913 8.11026 6.06808 8.11026 8.17953C8.11026 10.291 9.85027 11.9999 12.0001 11.9999ZM14.6674 13.0915H14.3792C13.6568 13.4326 12.8545 13.6372 12.0001 13.6372C11.1457 13.6372 10.3469 13.4326 9.62105 13.0915H9.33278C7.1239 13.0915 5.33178 14.8516 5.33178 17.021V18.0034C5.33178 18.9073 6.0785 19.6407 6.99887 19.6407H17.0014C17.9217 19.6407 18.6684 18.9073 18.6684 18.0034V17.021C18.6684 14.8516 16.8763 13.0915 14.6674 13.0915ZM6.89815 12.6344C6.49527 12.2421 5.94305 11.9999 5.33178 11.9999H3.10901C1.88301 11.9999 0.88623 12.9789 0.88623 14.183V15.2746C0.88623 15.8783 1.38288 16.3661 1.99762 16.3661H4.28638C4.50519 14.7492 5.49849 13.3882 6.89815 12.6344Z" fill="#457EFF"/>
</svg>
