<svg width="24" height="24" viewBox="0 0 24 24" fill="none" xmlns="http://www.w3.org/2000/svg">
<path d="M21.6006 12.6656L15.0177 19.2485C14.4299 19.8362 13.4111 19.4248 13.4111 18.5824V14.8207H8.08214C7.56099 14.8207 7.14172 14.4014 7.14172 13.8803V10.1187C7.14172 9.59751 7.56099 9.17824 8.08214 9.17824H13.4111V5.41659C13.4111 4.57805 14.426 4.1627 15.0177 4.75046L21.6006 11.3334C21.965 11.7017 21.965 12.2973 21.6006 12.6656ZM9.64949 19.0526V17.4852C9.64949 17.2266 9.4379 17.015 9.17928 17.015H5.88784C5.19429 17.015 4.63396 16.4547 4.63396 15.7611V8.23783C4.63396 7.54427 5.19429 6.98394 5.88784 6.98394H9.17928C9.4379 6.98394 9.64949 6.77235 9.64949 6.51374V4.94638C9.64949 4.68777 9.4379 4.47618 9.17928 4.47618H5.88784C3.8111 4.47618 2.12619 6.16108 2.12619 8.23783V15.7611C2.12619 17.8379 3.8111 19.5228 5.88784 19.5228H9.17928C9.4379 19.5228 9.64949 19.3112 9.64949 19.0526Z" fill="#457EFF"/>
</svg>
