<svg width="24" height="24" viewBox="0 0 24 24" fill="none" xmlns="http://www.w3.org/2000/svg">
<path d="M21.2643 12.3079L12.7055 2.79812C12.345 2.3968 11.6527 2.3968 11.2923 2.79812L2.73352 12.3079C2.61033 12.4444 2.52947 12.6138 2.50076 12.7955C2.47206 12.9772 2.49676 13.1632 2.57186 13.3311C2.72401 13.6744 3.06446 13.8951 3.4401 13.8951H5.34205V20.5519C5.34205 20.8041 5.44224 21.046 5.62059 21.2243C5.79893 21.4027 6.04081 21.5029 6.29303 21.5029H9.14596C9.39817 21.5029 9.64006 21.4027 9.8184 21.2243C9.99674 21.046 10.0969 20.8041 10.0969 20.5519V16.748H13.9008V20.5519C13.9008 20.8041 14.001 21.046 14.1794 21.2243C14.3577 21.4027 14.5996 21.5029 14.8518 21.5029H17.7047C17.957 21.5029 18.1988 21.4027 18.3772 21.2243C18.5555 21.046 18.6557 20.8041 18.6557 20.5519V13.8951H20.5577C20.7419 13.8958 20.9223 13.843 21.0769 13.743C21.2316 13.6431 21.3539 13.5002 21.4288 13.332C21.5037 13.1637 21.528 12.9773 21.4988 12.7955C21.4696 12.6136 21.3881 12.4442 21.2643 12.3079Z" fill="#457EFF"/>
</svg>
