<svg width="24" height="24" viewBox="0 0 24 24" fill="none" xmlns="http://www.w3.org/2000/svg">
<path fill-rule="evenodd" clip-rule="evenodd" d="M7.35964 2.89331C6.82297 2.89343 6.30831 3.10671 5.92888 3.48626L3.48626 5.92888C3.209 6.20585 3.01813 6.55736 2.93682 6.94073H21.0632C20.9819 6.55736 20.791 6.20585 20.5138 5.92888L18.0712 3.48626C17.6917 3.10671 17.1771 2.89343 16.6404 2.89331H7.35964ZM21.1067 8.96445H2.89331V19.083C2.89331 19.6197 3.10652 20.1345 3.48604 20.514C3.86556 20.8935 4.3803 21.1067 4.91702 21.1067H19.083C19.6197 21.1067 20.1345 20.8935 20.514 20.514C20.8935 20.1345 21.1067 19.6197 21.1067 19.083V8.96445ZM12 10.9882C12.2684 10.9882 12.5257 11.0948 12.7155 11.2845C12.9053 11.4743 13.0119 11.7317 13.0119 12V15.2238L13.4308 14.8039C13.6206 14.6141 13.8781 14.5076 14.1465 14.5077C14.4149 14.5078 14.6723 14.6145 14.8621 14.8044C15.0518 14.9942 15.1583 15.2517 15.1582 15.5201C15.1581 15.7885 15.0514 16.0459 14.8615 16.2356L12.7164 18.3818C12.6224 18.4759 12.5108 18.5505 12.388 18.6014C12.2652 18.6523 12.1335 18.6786 12.0005 18.6786C11.8675 18.6786 11.7359 18.6523 11.613 18.6014C11.4902 18.5505 11.3786 18.4759 11.2846 18.3818L9.13849 16.2356C8.94862 16.0459 8.8419 15.7885 8.84181 15.5201C8.84171 15.2517 8.94825 14.9942 9.13798 14.8044C9.32771 14.6145 9.5851 14.5078 9.85351 14.5077C10.1219 14.5076 10.3794 14.6141 10.5693 14.8039L10.9882 15.2238V12C10.9882 11.7317 11.0948 11.4743 11.2845 11.2845C11.4743 11.0948 11.7317 10.9882 12 10.9882Z" fill="#457EFF"/>
</svg>
