<svg width="25" height="24" viewBox="0 0 25 24" fill="none" xmlns="http://www.w3.org/2000/svg">
<path fill-rule="evenodd" clip-rule="evenodd" d="M19.0688 3.20166C19.8154 3.20166 20.5315 3.49826 21.0594 4.02621C21.5874 4.55416 21.884 5.27022 21.884 6.01685V15.4008C21.884 16.1475 21.5874 16.8635 21.0594 17.3915C20.5315 17.9194 19.8154 18.216 19.0688 18.216H8.1205L4.99282 20.562C4.21958 21.1419 3.11603 20.5902 3.11603 19.6236V6.01685C3.11603 5.27022 3.41263 4.55416 3.94058 4.02621C4.46853 3.49826 5.18458 3.20166 5.93122 3.20166H19.0688ZM11.5616 11.6472H8.74641C8.49753 11.6472 8.25885 11.7461 8.08286 11.9221C7.90688 12.0981 7.80801 12.3368 7.80801 12.5856C7.80801 12.8345 7.90688 13.0732 8.08286 13.2492C8.25885 13.4252 8.49753 13.524 8.74641 13.524H11.5616C11.8105 13.524 12.0492 13.4252 12.2252 13.2492C12.4011 13.0732 12.5 12.8345 12.5 12.5856C12.5 12.3368 12.4011 12.0981 12.2252 11.9221C12.0492 11.7461 11.8105 11.6472 11.5616 11.6472ZM16.2536 7.89365H8.74641C8.50723 7.89391 8.27718 7.9855 8.10326 8.14969C7.92934 8.31388 7.82468 8.53828 7.81067 8.77705C7.79665 9.01582 7.87433 9.25093 8.02785 9.43434C8.18136 9.61775 8.39911 9.73562 8.63662 9.76387L8.74641 9.77044H16.2536C16.4928 9.77018 16.7228 9.67859 16.8967 9.5144C17.0707 9.35021 17.1753 9.12581 17.1893 8.88704C17.2033 8.64827 17.1257 8.41316 16.9722 8.22975C16.8186 8.04634 16.6009 7.92846 16.3634 7.90022L16.2536 7.89365Z" fill="#457EFF"/>
</svg>
