<svg width="24" height="24" viewBox="0 0 24 24" fill="none" xmlns="http://www.w3.org/2000/svg">
<path d="M9.01235 19.967C9.01235 21.0624 8.11607 21.9587 7.02061 21.9587C5.92514 21.9587 5.03882 21.0624 5.03882 19.967C5.03882 18.8715 5.92514 17.9752 7.02061 17.9752C8.11607 17.9752 9.01235 18.8715 9.01235 19.967ZM16.9793 17.9752C15.8839 17.9752 14.9976 18.8715 14.9976 19.967C14.9976 21.0624 15.8839 21.9587 16.9793 21.9587C18.0748 21.9587 18.9711 21.0624 18.9711 19.967C18.9711 18.8715 18.0748 17.9752 16.9793 17.9752ZM17.3737 12.9959C17.8268 12.9958 18.2663 12.8412 18.6197 12.5577C18.9732 12.2742 19.2193 11.8786 19.3177 11.4363L20.8025 5.65323C20.8838 5.33689 20.6448 5.02888 20.3182 5.02888H7.52061C7.24446 5.02888 7.02061 4.80502 7.02061 4.52888V4.03301C7.02061 3.50476 6.81076 2.99815 6.43724 2.62463C6.06371 2.2511 5.5571 2.04126 5.02886 2.04126H3.53711C3.26097 2.04126 3.03711 2.26512 3.03711 2.54126V3.53301C3.03711 3.80915 3.26097 4.03301 3.53711 4.03301H4.52886C4.805 4.03301 5.02886 4.25686 5.02886 4.53301V14.9876C5.02886 15.5159 5.2387 16.0225 5.61223 16.396C5.98575 16.7695 6.49236 16.9794 7.02061 16.9794H18.4711C18.7472 16.9794 18.9773 16.7521 18.9087 16.4846C18.8207 16.1418 18.6422 15.8255 18.3877 15.571C18.0142 15.1975 17.5076 14.9876 16.9793 14.9876H7.52061C7.24446 14.9876 7.02061 14.7638 7.02061 14.4876V13.4959C7.02061 13.2197 7.24446 12.9959 7.52061 12.9959H17.3737Z" fill="#457EFF"/>
</svg>
