<svg width="25" height="24" viewBox="0 0 25 24" fill="none" xmlns="http://www.w3.org/2000/svg">
<path d="M21.7643 12.3078L13.2055 2.79805C12.8451 2.39674 12.1528 2.39674 11.7923 2.79805L3.23356 12.3078C3.11036 12.4444 3.0295 12.6138 3.0008 12.7954C2.9721 12.9771 2.9968 13.1632 3.07189 13.3311C3.22405 13.6744 3.5645 13.895 3.94013 13.895H5.84208V20.5518C5.84208 20.8041 5.94228 21.0459 6.12062 21.2243C6.29896 21.4026 6.54085 21.5028 6.79306 21.5028H9.64599C9.89821 21.5028 10.1401 21.4026 10.3184 21.2243C10.4968 21.0459 10.597 20.8041 10.597 20.5518V16.7479H14.4009V20.5518C14.4009 20.8041 14.5011 21.0459 14.6794 21.2243C14.8578 21.4026 15.0996 21.5028 15.3519 21.5028H18.2048C18.457 21.5028 18.6989 21.4026 18.8772 21.2243C19.0556 21.0459 19.1558 20.8041 19.1558 20.5518V13.895H21.0577C21.2419 13.8958 21.4223 13.843 21.577 13.743C21.7317 13.643 21.8539 13.5002 21.9288 13.3319C22.0037 13.1637 22.028 12.9773 21.9988 12.7954C21.9696 12.6136 21.8881 12.4442 21.7643 12.3078Z" fill="#457EFF"/>
</svg>
