<svg width="25" height="24" viewBox="0 0 25 24" fill="none" xmlns="http://www.w3.org/2000/svg">
<path d="M12.5 2.349C13.7798 2.349 15.0072 2.8574 15.9121 3.76235C16.8171 4.66731 17.3255 5.89469 17.3255 7.17449C17.3255 8.45429 16.8171 9.68168 15.9121 10.5866C15.0072 11.4916 13.7798 12 12.5 12C11.2202 12 9.9928 11.4916 9.08785 10.5866C8.18289 9.68168 7.67449 8.45429 7.67449 7.17449C7.67449 5.89469 8.18289 4.66731 9.08785 3.76235C9.9928 2.8574 11.2202 2.349 12.5 2.349ZM12.5 14.4127C17.8322 14.4127 22.151 16.5721 22.151 19.2382V21.651H2.849V19.2382C2.849 16.5721 7.16782 14.4127 12.5 14.4127Z" fill="#457EFF"/>
</svg>
