<svg width="25" height="24" viewBox="0 0 25 24" fill="none" xmlns="http://www.w3.org/2000/svg">
<path d="M4.72027 10.9086C5.94627 10.9086 6.94305 9.92965 6.94305 8.72554C6.94305 7.52144 5.94627 6.54246 4.72027 6.54246C3.49427 6.54246 2.4975 7.52144 2.4975 8.72554C2.4975 9.92965 3.49427 10.9086 4.72027 10.9086ZM20.2797 10.9086C21.5057 10.9086 22.5025 9.92965 22.5025 8.72554C22.5025 7.52144 21.5057 6.54246 20.2797 6.54246C19.0537 6.54246 18.0569 7.52144 18.0569 8.72554C18.0569 9.92965 19.0537 10.9086 20.2797 10.9086ZM21.3911 12.0002H19.1683C18.5571 12.0002 18.0048 12.2424 17.602 12.6346C19.0016 13.3885 19.9949 14.7495 20.2103 16.3663H22.5025C23.1172 16.3663 23.6139 15.8786 23.6139 15.2748V14.1833C23.6139 12.9791 22.6171 12.0002 21.3911 12.0002ZM12.5 12.0002C14.6498 12.0002 16.3899 10.2912 16.3899 8.17977C16.3899 6.06832 14.6498 4.35938 12.5 4.35938C10.3502 4.35938 8.61013 6.06832 8.61013 8.17977C8.61013 10.2912 10.3502 12.0002 12.5 12.0002ZM15.1673 13.0917H14.8791C14.1567 13.4328 13.3544 13.6375 12.5 13.6375C11.6456 13.6375 10.8468 13.4328 10.1209 13.0917H9.83266C7.62378 13.0917 5.83166 14.8518 5.83166 17.0213V18.0037C5.83166 18.9076 6.57838 19.641 7.49874 19.641H17.5012C18.4216 19.641 19.1683 18.9076 19.1683 18.0037V17.0213C19.1683 14.8518 17.3762 13.0917 15.1673 13.0917ZM7.39803 12.6346C6.99515 12.2424 6.44293 12.0002 5.83166 12.0002H3.60889C2.38288 12.0002 1.38611 12.9791 1.38611 14.1833V15.2748C1.38611 15.8786 1.88276 16.3663 2.4975 16.3663H4.78626C5.00507 14.7495 5.99837 13.3885 7.39803 12.6346Z" fill="#457EFF"/>
</svg>
