<svg width="24" height="24" viewBox="0 0 24 24" fill="none" xmlns="http://www.w3.org/2000/svg">
<path fill-rule="evenodd" clip-rule="evenodd" d="M18.5688 3.20166C19.3154 3.20166 20.0315 3.49826 20.5594 4.02621C21.0874 4.55416 21.384 5.27022 21.384 6.01685V15.4008C21.384 16.1475 21.0874 16.8635 20.5594 17.3915C20.0315 17.9194 19.3154 18.216 18.5688 18.216H7.6205L4.49282 20.562C3.71958 21.1419 2.61603 20.5902 2.61603 19.6236V6.01685C2.61603 5.27022 2.91263 4.55416 3.44058 4.02621C3.96853 3.49826 4.68458 3.20166 5.43122 3.20166H18.5688ZM11.0616 11.6472H8.24641C7.99753 11.6472 7.75885 11.7461 7.58286 11.9221C7.40688 12.0981 7.30801 12.3368 7.30801 12.5856C7.30801 12.8345 7.40688 13.0732 7.58286 13.2492C7.75885 13.4252 7.99753 13.524 8.24641 13.524H11.0616C11.3105 13.524 11.5492 13.4252 11.7251 13.2492C11.9011 13.0732 12 12.8345 12 12.5856C12 12.3368 11.9011 12.0981 11.7251 11.9221C11.5492 11.7461 11.3105 11.6472 11.0616 11.6472ZM15.7536 7.89365H8.24641C8.00723 7.89391 7.77718 7.9855 7.60326 8.14969C7.42934 8.31388 7.32468 8.53828 7.31067 8.77705C7.29665 9.01582 7.37433 9.25092 7.52785 9.43434C7.68136 9.61775 7.89911 9.73562 8.13662 9.76387L8.24641 9.77044H15.7536C15.9928 9.77018 16.2228 9.67859 16.3967 9.5144C16.5707 9.35021 16.6753 9.12581 16.6893 8.88704C16.7033 8.64827 16.6257 8.41316 16.4722 8.22975C16.3186 8.04634 16.1009 7.92846 15.8634 7.90022L15.7536 7.89365Z" fill="#457EFF"/>
</svg>
