<svg width="24" height="24" viewBox="0 0 24 24" fill="none" xmlns="http://www.w3.org/2000/svg">
<path d="M9.01238 19.967C9.01238 21.0625 8.1161 21.9587 7.02064 21.9587C5.92517 21.9587 5.03885 21.0625 5.03885 19.967C5.03885 18.8715 5.92517 17.9752 7.02064 17.9752C8.1161 17.9752 9.01238 18.8715 9.01238 19.967ZM16.9794 17.9752C15.8839 17.9752 14.9976 18.8715 14.9976 19.967C14.9976 21.0625 15.8839 21.9587 16.9794 21.9587C18.0748 21.9587 18.9711 21.0625 18.9711 19.967C18.9711 18.8715 18.0748 17.9752 16.9794 17.9752ZM17.3737 12.9959C17.8268 12.9958 18.2664 12.8412 18.6198 12.5577C18.9732 12.2742 19.2194 11.8786 19.3177 11.4363L20.8026 5.65323C20.8838 5.33689 20.6449 5.02888 20.3183 5.02888H7.52064C7.24449 5.02888 7.02064 4.80502 7.02064 4.52888V4.03301C7.02064 3.50476 6.81079 2.99815 6.43727 2.62463C6.06374 2.2511 5.55713 2.04126 5.02889 2.04126H3.53714C3.261 2.04126 3.03714 2.26512 3.03714 2.54126V3.53301C3.03714 3.80915 3.261 4.03301 3.53714 4.03301H4.52889C4.80503 4.03301 5.02889 4.25687 5.02889 4.53301V14.9876C5.02889 15.5159 5.23873 16.0225 5.61226 16.396C5.98578 16.7695 6.49239 16.9794 7.02064 16.9794H18.4711C18.7473 16.9794 18.9773 16.7521 18.9087 16.4846C18.8208 16.1418 18.6423 15.8255 18.3878 15.571C18.0142 15.1975 17.5076 14.9876 16.9794 14.9876H7.52064C7.24449 14.9876 7.02064 14.7638 7.02064 14.4876V13.4959C7.02064 13.2197 7.24449 12.9959 7.52064 12.9959H17.3737Z" fill="#457EFF"/>
</svg>
