<svg width="24" height="24" viewBox="0 0 24 24" fill="none" xmlns="http://www.w3.org/2000/svg">
<path d="M12.0001 2.34912C13.2799 2.34912 14.5073 2.85752 15.4122 3.76248C16.3172 4.66743 16.8256 5.89481 16.8256 7.17461C16.8256 8.45441 16.3172 9.6818 15.4122 10.5868C14.5073 11.4917 13.2799 12.0001 12.0001 12.0001C10.7203 12.0001 9.49292 11.4917 8.58797 10.5868C7.68301 9.6818 7.17461 8.45441 7.17461 7.17461C7.17461 5.89481 7.68301 4.66743 8.58797 3.76248C9.49292 2.85752 10.7203 2.34912 12.0001 2.34912ZM12.0001 14.4129C17.3323 14.4129 21.6511 16.5723 21.6511 19.2383V21.6511H2.34912V19.2383C2.34912 16.5723 6.66794 14.4129 12.0001 14.4129Z" fill="#457EFF"/>
</svg>
