<svg width="25" height="24" viewBox="0 0 25 24" fill="none" xmlns="http://www.w3.org/2000/svg">
<path d="M12.5 2.34912C13.7798 2.34912 15.0072 2.85752 15.9121 3.76248C16.8171 4.66743 17.3255 5.89481 17.3255 7.17461C17.3255 8.45441 16.8171 9.6818 15.9121 10.5868C15.0072 11.4917 13.7798 12.0001 12.5 12.0001C11.2202 12.0001 9.99282 11.4917 9.08786 10.5868C8.18291 9.6818 7.67451 8.45441 7.67451 7.17461C7.67451 5.89481 8.18291 4.66743 9.08786 3.76248C9.99282 2.85752 11.2202 2.34912 12.5 2.34912ZM12.5 14.4129C17.8322 14.4129 22.151 16.5723 22.151 19.2383V21.6511H2.84901V19.2383C2.84901 16.5723 7.16783 14.4129 12.5 14.4129Z" fill="#457EFF"/>
</svg>
