<svg width="25" height="24" viewBox="0 0 25 24" fill="none" xmlns="http://www.w3.org/2000/svg">
<path d="M4.72027 10.9084C5.94627 10.9084 6.94305 9.92947 6.94305 8.72536C6.94305 7.52125 5.94627 6.54228 4.72027 6.54228C3.49427 6.54228 2.4975 7.52125 2.4975 8.72536C2.4975 9.92947 3.49427 10.9084 4.72027 10.9084ZM20.2797 10.9084C21.5057 10.9084 22.5025 9.92947 22.5025 8.72536C22.5025 7.52125 21.5057 6.54228 20.2797 6.54228C19.0537 6.54228 18.0569 7.52125 18.0569 8.72536C18.0569 9.92947 19.0537 10.9084 20.2797 10.9084ZM21.3911 12H19.1683C18.5571 12 18.0048 12.2422 17.602 12.6344C19.0016 13.3883 19.9949 14.7493 20.2103 16.3662H22.5025C23.1172 16.3662 23.6139 15.8784 23.6139 15.2746V14.1831C23.6139 12.979 22.6171 12 21.3911 12ZM12.5 12C14.6498 12 16.3899 10.291 16.3899 8.17959C16.3899 6.06814 14.6498 4.35919 12.5 4.35919C10.3502 4.35919 8.61013 6.06814 8.61013 8.17959C8.61013 10.291 10.3502 12 12.5 12ZM15.1673 13.0915H14.8791C14.1567 13.4326 13.3544 13.6373 12.5 13.6373C11.6456 13.6373 10.8468 13.4326 10.1209 13.0915H9.83266C7.62378 13.0915 5.83166 14.8516 5.83166 17.0211V18.0035C5.83166 18.9074 6.57838 19.6408 7.49874 19.6408H17.5012C18.4216 19.6408 19.1683 18.9074 19.1683 18.0035V17.0211C19.1683 14.8516 17.3762 13.0915 15.1673 13.0915ZM7.39803 12.6344C6.99515 12.2422 6.44293 12 5.83166 12H3.60889C2.38288 12 1.38611 12.979 1.38611 14.1831V15.2746C1.38611 15.8784 1.88276 16.3662 2.4975 16.3662H4.78626C5.00507 14.7493 5.99837 13.3883 7.39803 12.6344Z" fill="#457EFF"/>
</svg>
