<svg width="24" height="24" viewBox="0 0 24 24" fill="none" xmlns="http://www.w3.org/2000/svg">
<path fill-rule="evenodd" clip-rule="evenodd" d="M18.5688 3.20142C19.3154 3.20142 20.0315 3.49802 20.5594 4.02597C21.0874 4.55392 21.384 5.26997 21.384 6.01661V15.4006C21.384 16.1472 21.0874 16.8633 20.5594 17.3912C20.0315 17.9192 19.3154 18.2158 18.5688 18.2158H7.6205L4.49282 20.5618C3.71958 21.1417 2.61603 20.5899 2.61603 19.6234V6.01661C2.61603 5.26997 2.91263 4.55392 3.44058 4.02597C3.96853 3.49802 4.68458 3.20142 5.43122 3.20142H18.5688ZM11.0616 11.647H8.24641C7.99753 11.647 7.75885 11.7459 7.58286 11.9218C7.40688 12.0978 7.30801 12.3365 7.30801 12.5854C7.30801 12.8343 7.40688 13.073 7.58286 13.2489C7.75885 13.4249 7.99753 13.5238 8.24641 13.5238H11.0616C11.3105 13.5238 11.5492 13.4249 11.7251 13.2489C11.9011 13.073 12 12.8343 12 12.5854C12 12.3365 11.9011 12.0978 11.7251 11.9218C11.5492 11.7459 11.3105 11.647 11.0616 11.647ZM15.7536 7.8934H8.24641C8.00723 7.89367 7.77718 7.98525 7.60326 8.14944C7.42934 8.31363 7.32468 8.53804 7.31067 8.7768C7.29665 9.01557 7.37433 9.25068 7.52785 9.43409C7.68136 9.61751 7.89911 9.73538 8.13662 9.76363L8.24641 9.7702H15.7536C15.9928 9.76993 16.2228 9.67835 16.3967 9.51416C16.5707 9.34997 16.6753 9.12556 16.6893 8.88679C16.7033 8.64803 16.6257 8.41292 16.4722 8.22951C16.3186 8.04609 16.1009 7.92822 15.8634 7.89997L15.7536 7.8934Z" fill="#457EFF"/>
</svg>
