<svg width="25" height="24" viewBox="0 0 25 24" fill="none" xmlns="http://www.w3.org/2000/svg">
<path d="M9.51235 19.967C9.51235 21.0625 8.61607 21.9587 7.52061 21.9587C6.42514 21.9587 5.53882 21.0625 5.53882 19.967C5.53882 18.8715 6.42514 17.9752 7.52061 17.9752C8.61607 17.9752 9.51235 18.8715 9.51235 19.967ZM17.4793 17.9752C16.3839 17.9752 15.4976 18.8715 15.4976 19.967C15.4976 21.0625 16.3839 21.9587 17.4793 21.9587C18.5748 21.9587 19.4711 21.0625 19.4711 19.967C19.4711 18.8715 18.5748 17.9752 17.4793 17.9752ZM17.8737 12.9959C18.3268 12.9958 18.7663 12.8412 19.1197 12.5577C19.4732 12.2742 19.7193 11.8786 19.8177 11.4363L21.3025 5.65323C21.3838 5.33689 21.1448 5.02888 20.8182 5.02888H8.02061C7.74446 5.02888 7.52061 4.80502 7.52061 4.52888V4.03301C7.52061 3.50476 7.31076 2.99815 6.93724 2.62463C6.56371 2.2511 6.0571 2.04126 5.52886 2.04126H4.03711C3.76097 2.04126 3.53711 2.26512 3.53711 2.54126V3.53301C3.53711 3.80915 3.76097 4.03301 4.03711 4.03301H5.02886C5.305 4.03301 5.52886 4.25687 5.52886 4.53301V14.9876C5.52886 15.5159 5.7387 16.0225 6.11223 16.396C6.48575 16.7695 6.99236 16.9794 7.52061 16.9794H18.9711C19.2472 16.9794 19.4773 16.7521 19.4087 16.4846C19.3207 16.1418 19.1422 15.8255 18.8877 15.571C18.5142 15.1975 18.0076 14.9876 17.4793 14.9876H8.02061C7.74446 14.9876 7.52061 14.7638 7.52061 14.4876V13.4959C7.52061 13.2197 7.74446 12.9959 8.02061 12.9959H17.8737Z" fill="#457EFF"/>
</svg>
