<svg width="24" height="24" viewBox="0 0 24 24" fill="none" xmlns="http://www.w3.org/2000/svg">
<path d="M12 20.9745C11.6998 20.9741 11.4066 20.8834 11.1587 20.7142C7.48518 18.2204 5.89454 16.5106 5.01719 15.4416C3.14749 13.1629 2.25238 10.8235 2.27762 8.29004C2.30707 5.38687 4.63624 3.02545 7.46976 3.02545C9.53016 3.02545 10.9572 4.18606 11.7883 5.1527C11.8146 5.18301 11.8471 5.20731 11.8837 5.22397C11.9202 5.24063 11.9599 5.24925 12 5.24925C12.0402 5.24925 12.0799 5.24063 12.1164 5.22397C12.1529 5.20731 12.1854 5.18301 12.2118 5.1527C13.0428 4.18513 14.4699 3.02545 16.5303 3.02545C19.3638 3.02545 21.693 5.38687 21.7224 8.29051C21.7477 10.8244 20.8516 13.1639 18.9829 15.4421C18.1055 16.5111 16.5149 18.2209 12.8414 20.7146C12.5934 20.8837 12.3002 20.9743 12 20.9745Z" fill="#457EFF"/>
</svg>
