<svg width="24" height="24" viewBox="0 0 24 24" fill="none" xmlns="http://www.w3.org/2000/svg">
<path d="M21.6006 12.6657L15.0177 19.2486C14.43 19.8364 13.4112 19.4249 13.4112 18.5825V14.8208H8.08217C7.56102 14.8208 7.14175 14.4016 7.14175 13.8804V10.1188C7.14175 9.59763 7.56102 9.17836 8.08217 9.17836H13.4112V5.41671C13.4112 4.57818 14.426 4.16283 15.0177 4.75058L21.6006 11.3335C21.965 11.7018 21.965 12.2974 21.6006 12.6657ZM9.64952 19.0527V17.4853C9.64952 17.2267 9.43793 17.0151 9.17931 17.0151H5.88787C5.19432 17.0151 4.63399 16.4548 4.63399 15.7612V8.23795C4.63399 7.54439 5.19432 6.98406 5.88787 6.98406H9.17931C9.43793 6.98406 9.64952 6.77247 9.64952 6.51386V4.9465C9.64952 4.68789 9.43793 4.4763 9.17931 4.4763H5.88787C3.81113 4.4763 2.12622 6.1612 2.12622 8.23795V15.7612C2.12622 17.838 3.81113 19.5229 5.88787 19.5229H9.17931C9.43793 19.5229 9.64952 19.3113 9.64952 19.0527Z" fill="#457EFF"/>
</svg>
