<svg width="24" height="24" viewBox="0 0 24 24" fill="none" xmlns="http://www.w3.org/2000/svg">
<path d="M12 2.34912C13.2798 2.34912 14.5072 2.85752 15.4121 3.76248C16.3171 4.66743 16.8255 5.89481 16.8255 7.17461C16.8255 8.45441 16.3171 9.6818 15.4121 10.5868C14.5072 11.4917 13.2798 12.0001 12 12.0001C10.7202 12.0001 9.4928 11.4917 8.58785 10.5868C7.68289 9.6818 7.17449 8.45441 7.17449 7.17461C7.17449 5.89481 7.68289 4.66743 8.58785 3.76248C9.4928 2.85752 10.7202 2.34912 12 2.34912ZM12 14.4129C17.3322 14.4129 21.651 16.5723 21.651 19.2383V21.6511H2.349V19.2383C2.349 16.5723 6.66782 14.4129 12 14.4129Z" fill="#457EFF"/>
</svg>
