<svg width="24" height="24" viewBox="0 0 24 24" fill="none" xmlns="http://www.w3.org/2000/svg">
<path d="M12 2.349C13.2798 2.349 14.5072 2.8574 15.4121 3.76235C16.3171 4.66731 16.8255 5.89469 16.8255 7.17449C16.8255 8.45429 16.3171 9.68168 15.4121 10.5866C14.5072 11.4916 13.2798 12 12 12C10.7202 12 9.4928 11.4916 8.58785 10.5866C7.68289 9.68168 7.17449 8.45429 7.17449 7.17449C7.17449 5.89469 7.68289 4.66731 8.58785 3.76235C9.4928 2.8574 10.7202 2.349 12 2.349ZM12 14.4127C17.3322 14.4127 21.651 16.5721 21.651 19.2382V21.651H2.349V19.2382C2.349 16.5721 6.66782 14.4127 12 14.4127Z" fill="#457EFF"/>
</svg>
