<svg width="24" height="24" viewBox="0 0 24 24" fill="none" xmlns="http://www.w3.org/2000/svg">
<path d="M21.6006 12.6656L15.0177 19.2485C14.43 19.8362 13.4112 19.4248 13.4112 18.5824V14.8207H8.08217C7.56102 14.8207 7.14175 14.4014 7.14175 13.8803V10.1187C7.14175 9.59751 7.56102 9.17824 8.08217 9.17824H13.4112V5.41659C13.4112 4.57805 14.426 4.1627 15.0177 4.75046L21.6006 11.3334C21.965 11.7017 21.965 12.2973 21.6006 12.6656ZM9.64952 19.0526V17.4852C9.64952 17.2266 9.43793 17.015 9.17931 17.015H5.88787C5.19432 17.015 4.63399 16.4547 4.63399 15.7611V8.23783C4.63399 7.54427 5.19432 6.98394 5.88787 6.98394H9.17931C9.43793 6.98394 9.64952 6.77235 9.64952 6.51374V4.94638C9.64952 4.68777 9.43793 4.47618 9.17931 4.47618H5.88787C3.81113 4.47618 2.12622 6.16108 2.12622 8.23783V15.7611C2.12622 17.8379 3.81113 19.5228 5.88787 19.5228H9.17931C9.43793 19.5228 9.64952 19.3112 9.64952 19.0526Z" fill="#457EFF"/>
</svg>
