<svg width="24" height="24" viewBox="0 0 24 24" fill="none" xmlns="http://www.w3.org/2000/svg">
<path fill-rule="evenodd" clip-rule="evenodd" d="M18.5688 3.20148C19.3154 3.20148 20.0315 3.49808 20.5594 4.02603C21.0874 4.55398 21.384 5.27003 21.384 6.01667V15.4006C21.384 16.1473 21.0874 16.8633 20.5594 17.3913C20.0315 17.9192 19.3154 18.2158 18.5688 18.2158H7.6205L4.49282 20.5618C3.71958 21.1418 2.61603 20.59 2.61603 19.6234V6.01667C2.61603 5.27003 2.91263 4.55398 3.44058 4.02603C3.96853 3.49808 4.68458 3.20148 5.43122 3.20148H18.5688ZM11.0616 11.6471H8.24641C7.99753 11.6471 7.75885 11.7459 7.58286 11.9219C7.40688 12.0979 7.30801 12.3366 7.30801 12.5855C7.30801 12.8343 7.40688 13.073 7.58286 13.249C7.75885 13.425 7.99753 13.5238 8.24641 13.5238H11.0616C11.3105 13.5238 11.5492 13.425 11.7252 13.249C11.9011 13.073 12 12.8343 12 12.5855C12 12.3366 11.9011 12.0979 11.7252 11.9219C11.5492 11.7459 11.3105 11.6471 11.0616 11.6471ZM15.7536 7.89346H8.24641C8.00723 7.89373 7.77718 7.98531 7.60326 8.1495C7.42934 8.31369 7.32468 8.5381 7.31067 8.77687C7.29665 9.01563 7.37433 9.25074 7.52785 9.43415C7.68136 9.61757 7.89911 9.73544 8.13662 9.76369L8.24641 9.77026H15.7536C15.9928 9.76999 16.2228 9.67841 16.3967 9.51422C16.5707 9.35003 16.6753 9.12562 16.6893 8.88686C16.7033 8.64809 16.6257 8.41298 16.4722 8.22957C16.3186 8.04615 16.1009 7.92828 15.8634 7.90003L15.7536 7.89346Z" fill="#457EFF"/>
</svg>
