<svg width="25" height="24" viewBox="0 0 25 24" fill="none" xmlns="http://www.w3.org/2000/svg">
<path d="M21.7643 12.3078L13.2055 2.79805C12.845 2.39674 12.1527 2.39674 11.7923 2.79805L3.23352 12.3078C3.11033 12.4444 3.02947 12.6138 3.00076 12.7954C2.97206 12.9771 2.99676 13.1632 3.07186 13.3311C3.22401 13.6744 3.56446 13.895 3.9401 13.895H5.84205V20.5518C5.84205 20.8041 5.94224 21.0459 6.12059 21.2243C6.29893 21.4026 6.54081 21.5028 6.79303 21.5028H9.64596C9.89817 21.5028 10.1401 21.4026 10.3184 21.2243C10.4967 21.0459 10.5969 20.8041 10.5969 20.5518V16.7479H14.4008V20.5518C14.4008 20.8041 14.501 21.0459 14.6794 21.2243C14.8577 21.4026 15.0996 21.5028 15.3518 21.5028H18.2047C18.457 21.5028 18.6988 21.4026 18.8772 21.2243C19.0555 21.0459 19.1557 20.8041 19.1557 20.5518V13.895H21.0577C21.2419 13.8958 21.4223 13.843 21.5769 13.743C21.7316 13.643 21.8539 13.5002 21.9288 13.3319C22.0037 13.1637 22.028 12.9773 21.9988 12.7954C21.9696 12.6136 21.8881 12.4442 21.7643 12.3078Z" fill="#457EFF"/>
</svg>
