<svg width="25" height="24" viewBox="0 0 25 24" fill="none" xmlns="http://www.w3.org/2000/svg">
<path d="M9.51238 19.967C9.51238 21.0625 8.6161 21.9587 7.52064 21.9587C6.42517 21.9587 5.53885 21.0625 5.53885 19.967C5.53885 18.8715 6.42517 17.9752 7.52064 17.9752C8.6161 17.9752 9.51238 18.8715 9.51238 19.967ZM17.4794 17.9752C16.3839 17.9752 15.4976 18.8715 15.4976 19.967C15.4976 21.0625 16.3839 21.9587 17.4794 21.9587C18.5748 21.9587 19.4711 21.0625 19.4711 19.967C19.4711 18.8715 18.5748 17.9752 17.4794 17.9752ZM17.8737 12.9959C18.3268 12.9958 18.7664 12.8412 19.1198 12.5577C19.4732 12.2742 19.7194 11.8786 19.8177 11.4363L21.3026 5.65323C21.3838 5.33689 21.1449 5.02888 20.8183 5.02888H8.02064C7.74449 5.02888 7.52064 4.80502 7.52064 4.52888V4.03301C7.52064 3.50476 7.31079 2.99815 6.93727 2.62463C6.56374 2.2511 6.05713 2.04126 5.52889 2.04126H4.03714C3.761 2.04126 3.53714 2.26512 3.53714 2.54126V3.53301C3.53714 3.80915 3.761 4.03301 4.03714 4.03301H5.02889C5.30503 4.03301 5.52889 4.25687 5.52889 4.53301V14.9876C5.52889 15.5159 5.73873 16.0225 6.11226 16.396C6.48578 16.7695 6.99239 16.9794 7.52064 16.9794H18.9711C19.2473 16.9794 19.4773 16.7521 19.4087 16.4846C19.3208 16.1418 19.1423 15.8255 18.8878 15.571C18.5142 15.1975 18.0076 14.9876 17.4794 14.9876H8.02064C7.74449 14.9876 7.52064 14.7638 7.52064 14.4876V13.4959C7.52064 13.2197 7.74449 12.9959 8.02064 12.9959H17.8737Z" fill="#457EFF"/>
</svg>
